<svg width="1040" height="1040" viewBox="0 0 1040 1040" fill="none" xmlns="http://www.w3.org/2000/svg">
<g clip-path="url(#clip0_16_420)">
<rect width="1040" height="1040" fill="#0A2D55"/>
<path d="M419.45 958L404.6 918.625H409.7L423.2 955.15H420.875L434.75 918.625H439.325L453.05 955.15H450.725L464.45 918.625H469.325L454.4 958H449.375L436.175 923.65H437.75L424.475 958H419.45ZM485.002 958L470.152 918.625H475.252L488.752 955.15H486.427L500.302 918.625H504.877L518.602 955.15H516.277L530.002 918.625H534.877L519.952 958H514.927L501.727 923.65H503.302L490.027 958H485.002ZM550.554 958L535.704 918.625H540.804L554.304 955.15H551.979L565.854 918.625H570.429L584.154 955.15H581.829L595.554 918.625H600.429L585.504 958H580.479L567.279 923.65H568.854L555.579 958H550.554ZM606.408 958.375C605.308 958.375 604.358 957.975 603.558 957.175C602.808 956.375 602.433 955.4 602.433 954.25C602.433 953.05 602.808 952.075 603.558 951.325C604.358 950.575 605.308 950.2 606.408 950.2C607.508 950.2 608.433 950.575 609.183 951.325C609.983 952.075 610.383 953.05 610.383 954.25C610.383 955.4 609.983 956.375 609.183 957.175C608.433 957.975 607.508 958.375 606.408 958.375ZM641.877 918.25C645.077 918.25 647.877 918.875 650.277 920.125C652.727 921.325 654.627 923.175 655.977 925.675C657.377 928.175 658.077 931.325 658.077 935.125V958H652.752V935.65C652.752 931.5 651.702 928.375 649.602 926.275C647.552 924.125 644.652 923.05 640.902 923.05C638.102 923.05 635.652 923.625 633.552 924.775C631.502 925.875 629.902 927.5 628.752 929.65C627.652 931.75 627.102 934.3 627.102 937.3V958H621.777V902.35H627.102V929.425L626.052 927.4C627.302 924.55 629.302 922.325 632.052 920.725C634.802 919.075 638.077 918.25 641.877 918.25ZM697.135 958V949.3L696.91 947.875V933.325C696.91 929.975 695.96 927.4 694.06 925.6C692.21 923.8 689.435 922.9 685.735 922.9C683.185 922.9 680.76 923.325 678.46 924.175C676.16 925.025 674.21 926.15 672.61 927.55L670.21 923.575C672.21 921.875 674.61 920.575 677.41 919.675C680.21 918.725 683.16 918.25 686.26 918.25C691.36 918.25 695.285 919.525 698.035 922.075C700.835 924.575 702.235 928.4 702.235 933.55V958H697.135ZM683.56 958.375C680.61 958.375 678.035 957.9 675.835 956.95C673.685 955.95 672.035 954.6 670.885 952.9C669.735 951.15 669.16 949.15 669.16 946.9C669.16 944.85 669.635 943 670.585 941.35C671.585 939.65 673.185 938.3 675.385 937.3C677.635 936.25 680.635 935.725 684.385 935.725H697.96V939.7H684.535C680.735 939.7 678.085 940.375 676.585 941.725C675.135 943.075 674.41 944.75 674.41 946.75C674.41 949 675.285 950.8 677.035 952.15C678.785 953.5 681.235 954.175 684.385 954.175C687.385 954.175 689.96 953.5 692.11 952.15C694.31 950.75 695.91 948.75 696.91 946.15L698.11 949.825C697.11 952.425 695.36 954.5 692.86 956.05C690.41 957.6 687.31 958.375 683.56 958.375ZM737.023 958.375C733.573 958.375 730.473 957.6 727.723 956.05C724.973 954.45 722.798 952.15 721.198 949.15C719.598 946.15 718.798 942.525 718.798 938.275C718.798 933.975 719.598 930.35 721.198 927.4C722.848 924.4 725.048 922.125 727.798 920.575C730.548 919.025 733.623 918.25 737.023 918.25C740.773 918.25 744.123 919.1 747.073 920.8C750.073 922.45 752.423 924.775 754.123 927.775C755.823 930.775 756.673 934.275 756.673 938.275C756.673 942.225 755.823 945.725 754.123 948.775C752.423 951.775 750.073 954.125 747.073 955.825C744.123 957.525 740.773 958.375 737.023 958.375ZM716.698 958V902.35H722.023V930.25L721.273 938.2L721.798 946.15V958H716.698ZM736.648 953.65C739.448 953.65 741.948 953.025 744.148 951.775C746.348 950.475 748.098 948.675 749.398 946.375C750.698 944.025 751.348 941.325 751.348 938.275C751.348 935.175 750.698 932.475 749.398 930.175C748.098 927.875 746.348 926.1 744.148 924.85C741.948 923.55 739.448 922.9 736.648 922.9C733.848 922.9 731.323 923.55 729.073 924.85C726.873 926.1 725.123 927.875 723.823 930.175C722.573 932.475 721.948 935.175 721.948 938.275C721.948 941.325 722.573 944.025 723.823 946.375C725.123 948.675 726.873 950.475 729.073 951.775C731.323 953.025 733.848 953.65 736.648 953.65ZM779.979 958.375C776.279 958.375 773.429 957.375 771.429 955.375C769.429 953.375 768.429 950.55 768.429 946.9V909.925H773.754V946.6C773.754 948.9 774.329 950.675 775.479 951.925C776.679 953.175 778.379 953.8 780.579 953.8C782.929 953.8 784.879 953.125 786.429 951.775L788.304 955.6C787.254 956.55 785.979 957.25 784.479 957.7C783.029 958.15 781.529 958.375 779.979 958.375ZM761.379 923.05V918.625H785.754V923.05H761.379ZM822.672 958V949.3L822.447 947.875V933.325C822.447 929.975 821.497 927.4 819.597 925.6C817.747 923.8 814.972 922.9 811.272 922.9C808.722 922.9 806.297 923.325 803.997 924.175C801.697 925.025 799.747 926.15 798.147 927.55L795.747 923.575C797.747 921.875 800.147 920.575 802.947 919.675C805.747 918.725 808.697 918.25 811.797 918.25C816.897 918.25 820.822 919.525 823.572 922.075C826.372 924.575 827.772 928.4 827.772 933.55V958H822.672ZM809.097 958.375C806.147 958.375 803.572 957.9 801.372 956.95C799.222 955.95 797.572 954.6 796.422 952.9C795.272 951.15 794.697 949.15 794.697 946.9C794.697 944.85 795.172 943 796.122 941.35C797.122 939.65 798.722 938.3 800.922 937.3C803.172 936.25 806.172 935.725 809.922 935.725H823.497V939.7H810.072C806.272 939.7 803.622 940.375 802.122 941.725C800.672 943.075 799.947 944.75 799.947 946.75C799.947 949 800.822 950.8 802.572 952.15C804.322 953.5 806.772 954.175 809.922 954.175C812.922 954.175 815.497 953.5 817.647 952.15C819.847 950.75 821.447 948.75 822.447 946.15L823.647 949.825C822.647 952.425 820.897 954.5 818.397 956.05C815.947 957.6 812.847 958.375 809.097 958.375ZM842.761 958.375C841.661 958.375 840.711 957.975 839.911 957.175C839.161 956.375 838.786 955.4 838.786 954.25C838.786 953.05 839.161 952.075 839.911 951.325C840.711 950.575 841.661 950.2 842.761 950.2C843.861 950.2 844.786 950.575 845.536 951.325C846.336 952.075 846.736 953.05 846.736 954.25C846.736 955.4 846.336 956.375 845.536 957.175C844.786 957.975 843.861 958.375 842.761 958.375ZM873.755 958.375C869.655 958.375 866.055 957.525 862.955 955.825C859.855 954.075 857.43 951.7 855.68 948.7C853.93 945.65 853.055 942.175 853.055 938.275C853.055 934.375 853.88 930.925 855.53 927.925C857.23 924.925 859.53 922.575 862.43 920.875C865.38 919.125 868.68 918.25 872.33 918.25C876.03 918.25 879.305 919.1 882.155 920.8C885.055 922.45 887.33 924.8 888.98 927.85C890.63 930.85 891.455 934.325 891.455 938.275C891.455 938.525 891.43 938.8 891.38 939.1C891.38 939.35 891.38 939.625 891.38 939.925H857.105V935.95H888.53L886.43 937.525C886.43 934.675 885.805 932.15 884.555 929.95C883.355 927.7 881.705 925.95 879.605 924.7C877.505 923.45 875.08 922.825 872.33 922.825C869.63 922.825 867.205 923.45 865.055 924.7C862.905 925.95 861.23 927.7 860.03 929.95C858.83 932.2 858.23 934.775 858.23 937.675V938.5C858.23 941.5 858.88 944.15 860.18 946.45C861.53 948.7 863.38 950.475 865.73 951.775C868.13 953.025 870.855 953.65 873.905 953.65C876.305 953.65 878.53 953.225 880.58 952.375C882.68 951.525 884.48 950.225 885.98 948.475L888.98 951.925C887.23 954.025 885.03 955.625 882.38 956.725C879.78 957.825 876.905 958.375 873.755 958.375ZM918.569 958.375C915.219 958.375 912.294 957.75 909.794 956.5C907.294 955.25 905.344 953.375 903.944 950.875C902.594 948.375 901.919 945.25 901.919 941.5V918.625H907.244V940.9C907.244 945.1 908.269 948.275 910.319 950.425C912.419 952.525 915.344 953.575 919.094 953.575C921.844 953.575 924.219 953.025 926.219 951.925C928.269 950.775 929.819 949.125 930.869 946.975C931.969 944.825 932.519 942.25 932.519 939.25V918.625H937.844V958H932.744V947.2L933.569 949.15C932.319 952.05 930.369 954.325 927.719 955.975C925.119 957.575 922.069 958.375 918.569 958.375Z" fill="#F9FAFC"/>
<path d="M796.902 294.331C802.019 296.381 802.019 296.381 807.355 299.276C810.355 300.879 810.355 300.879 813.414 302.513C815.565 303.689 817.716 304.865 819.867 306.041C823.25 307.859 826.637 309.668 830.024 311.477C832.331 312.71 834.636 313.945 836.94 315.183C847.919 321.076 859.029 326.708 870.167 332.308C884.817 339.706 899.38 347.245 913.857 354.962C915.49 355.833 917.123 356.703 918.806 357.6C927.231 362.113 927.231 362.113 931.333 364.374C932.87 364.871 934.408 365.368 935.992 365.879C940.295 369.628 940.295 369.628 941.117 373.476C941.434 378.914 941.444 384.291 941.373 389.737C941.384 392.887 941.384 392.887 941.396 396.1C941.408 401.939 941.38 407.775 941.335 413.614C941.296 419.905 941.309 426.197 941.316 432.489C941.321 443.393 941.293 454.297 941.243 465.201C941.17 480.967 941.146 496.732 941.135 512.498C941.115 538.075 941.056 563.652 940.971 589.23C940.889 614.079 940.825 638.928 940.787 663.777C940.785 665.324 940.782 666.871 940.78 668.465C940.761 680.561 940.744 692.657 940.727 704.754C940.642 764.068 940.462 823.381 940.295 882.695C862.217 882.695 784.14 882.695 703.697 882.695C703.609 850.163 703.521 817.632 703.431 784.114C703.367 763.557 703.303 743 703.235 722.443C703.199 711.648 703.163 700.853 703.128 690.059C703.123 688.706 703.119 687.353 703.114 685.959C703.043 664.102 702.984 642.245 702.93 620.388C702.875 597.964 702.805 575.541 702.724 553.118C702.674 539.276 702.634 525.435 702.608 511.593C702.587 500.988 702.547 490.383 702.5 479.778C702.484 475.421 702.474 471.064 702.47 466.707C702.464 460.774 702.437 454.842 702.403 448.909C702.407 447.172 702.41 445.434 702.414 443.644C702.401 442.056 702.387 440.469 702.373 438.833C702.367 436.778 702.367 436.778 702.361 434.682C701.834 430.335 700.728 427.596 698.319 423.911C694.308 421.512 690.497 419.498 686.27 417.543C685.085 416.974 683.901 416.405 682.681 415.819C678.904 414.009 675.114 412.229 671.321 410.45C667.526 408.646 663.733 406.836 659.942 405.024C657.583 403.899 655.222 402.781 652.857 401.668C644.74 397.833 644.74 397.833 642.755 395.894C642.202 391.051 642.202 391.051 641.97 384.95C641.862 382.954 641.753 380.959 641.641 378.903C642.87 372.53 644.604 370.34 649.924 366.566C657.498 361.937 665.324 357.825 673.226 353.758C677.105 351.734 680.984 349.71 684.862 347.684C686.816 346.669 688.771 345.653 690.784 344.606C699.376 340.124 707.923 335.562 716.468 330.994C719.684 329.28 722.9 327.565 726.116 325.851C733.017 322.169 739.915 318.484 746.813 314.797C748.596 313.844 750.379 312.892 752.217 311.911C755.623 310.091 759.029 308.271 762.434 306.448C765.447 304.84 768.464 303.239 771.486 301.649C774.751 299.924 777.988 298.149 781.218 296.363C787.039 293.964 790.613 293.852 796.902 294.331Z" fill="#F9FAFC"/>
<path d="M528.047 385.901C529.995 386.672 529.995 386.672 531.982 387.458C533.38 388.039 534.778 388.62 536.218 389.218C538.506 390.14 538.506 390.14 540.839 391.08C559.476 398.65 577.969 406.565 596.467 414.451C605.929 418.485 615.409 422.473 624.908 426.422C626.068 426.905 627.228 427.387 628.423 427.885C633.977 430.196 639.533 432.501 645.093 434.799C647.064 435.619 649.035 436.439 651.066 437.284C653.664 438.36 653.664 438.36 656.315 439.457C660.679 441.422 660.679 441.422 666.056 444.924C666.746 449.291 666.746 449.291 666.771 454.921C666.793 457.056 666.816 459.19 666.839 461.389C666.837 463.772 666.834 466.156 666.831 468.54C666.847 471.048 666.866 473.556 666.886 476.064C666.936 482.935 666.952 489.806 666.963 496.677C666.98 503.977 667.027 511.276 667.071 518.576C667.15 532.652 667.201 546.728 667.242 560.804C667.29 576.923 667.368 593.041 667.447 609.159C667.72 665.698 667.875 722.239 667.946 778.779C667.95 781.462 667.95 781.462 667.953 784.198C667.99 817.031 667.908 849.862 667.848 882.695C597.46 882.695 527.072 882.695 454.552 882.695C454.513 857.819 454.513 857.819 454.475 832.44C454.439 821.946 454.4 811.452 454.352 800.958C454.276 784.295 454.208 767.631 454.201 750.967C454.196 738.832 454.159 726.696 454.085 714.561C454.046 708.135 454.024 701.71 454.039 695.285C454.055 688.11 454.001 680.938 453.941 673.764C453.957 671.634 453.972 669.504 453.988 667.31C453.985 655.835 453.985 655.835 448.498 646.017C446.947 644.954 445.395 643.891 443.797 642.797C442.247 641.58 440.696 640.363 439.099 639.11C437.433 637.907 435.767 636.704 434.051 635.464C432.159 634.096 430.266 632.728 428.317 631.319C421.287 626.305 414.192 621.384 407.094 616.465C398.435 610.443 389.901 604.266 381.399 598.035C380.144 597.115 378.888 596.196 377.595 595.249C368.759 588.75 368.759 588.75 366.723 586.762C366.515 582.494 366.422 578.274 366.406 574.003C366.394 572.668 366.383 571.333 366.37 569.957C366.335 565.517 366.314 561.078 366.296 556.638C366.289 555.124 366.282 553.611 366.274 552.051C366.237 544.037 366.211 536.022 366.194 528.008C366.175 519.726 366.113 511.446 366.042 503.165C365.995 496.802 365.98 490.438 365.973 484.075C365.965 481.022 365.944 477.97 365.911 474.918C365.867 470.642 365.869 466.368 365.881 462.091C365.858 460.832 365.835 459.573 365.811 458.275C365.875 452.269 366.576 448.665 369.768 443.484C374.181 439.405 377.797 437.339 383.381 435.042C385.28 434.246 387.179 433.451 389.136 432.631C391.187 431.801 393.239 430.971 395.353 430.115C397.49 429.228 399.627 428.341 401.829 427.427C407.52 425.065 413.224 422.732 418.93 420.405C424.609 418.083 430.277 415.735 435.945 413.388C444.691 409.769 453.448 406.177 462.212 402.6C469.727 399.528 477.211 396.402 484.665 393.19C486.219 392.526 487.774 391.863 489.376 391.18C492.177 389.982 494.97 388.767 497.753 387.531C507.922 383.211 517.444 381.616 528.047 385.901Z" fill="#F9FAFC"/>
<path d="M796.902 294.331C802.019 296.381 802.019 296.381 807.355 299.276C810.355 300.879 810.355 300.879 813.414 302.513C815.565 303.689 817.716 304.865 819.867 306.041C823.25 307.859 826.637 309.668 830.024 311.477C832.331 312.71 834.636 313.945 836.94 315.183C847.919 321.076 859.029 326.708 870.167 332.308C884.817 339.706 899.38 347.245 913.857 354.962C915.49 355.833 917.123 356.703 918.806 357.6C927.231 362.113 927.231 362.113 931.333 364.374C932.87 364.871 934.408 365.368 935.992 365.879C940.295 369.628 940.295 369.628 941.117 373.476C941.434 378.914 941.444 384.291 941.373 389.737C941.384 392.887 941.384 392.887 941.396 396.1C941.408 401.939 941.38 407.775 941.335 413.614C941.296 419.905 941.309 426.197 941.316 432.489C941.321 443.393 941.293 454.297 941.243 465.201C941.17 480.967 941.146 496.732 941.135 512.498C941.115 538.075 941.056 563.652 940.971 589.23C940.889 614.079 940.825 638.928 940.787 663.777C940.785 665.324 940.782 666.871 940.78 668.465C940.761 680.561 940.744 692.657 940.727 704.754C940.642 764.068 940.462 823.381 940.295 882.695C862.217 882.695 784.14 882.695 703.697 882.695C703.609 850.163 703.521 817.632 703.431 784.114C703.367 763.557 703.303 743 703.235 722.443C703.199 711.648 703.163 700.853 703.128 690.059C703.123 688.706 703.119 687.353 703.114 685.959C703.043 664.102 702.984 642.245 702.93 620.388C702.875 597.964 702.805 575.541 702.724 553.118C702.674 539.276 702.634 525.435 702.608 511.593C702.587 500.988 702.547 490.383 702.5 479.778C702.484 475.421 702.474 471.064 702.47 466.707C702.464 460.774 702.437 454.842 702.403 448.909C702.407 447.172 702.41 445.434 702.414 443.644C702.401 442.056 702.387 440.469 702.373 438.833C702.367 436.778 702.367 436.778 702.361 434.682C701.834 430.335 700.728 427.596 698.319 423.911C694.308 421.512 690.497 419.498 686.27 417.543C685.085 416.974 683.901 416.405 682.681 415.819C678.904 414.009 675.114 412.229 671.321 410.45C667.526 408.646 663.733 406.836 659.942 405.024C657.583 403.899 655.222 402.781 652.857 401.668C644.74 397.833 644.74 397.833 642.755 395.894C642.202 391.051 642.202 391.051 641.97 384.95C641.862 382.954 641.753 380.959 641.641 378.903C642.87 372.53 644.604 370.34 649.924 366.566C657.498 361.937 665.324 357.825 673.226 353.758C677.105 351.734 680.984 349.71 684.862 347.684C686.816 346.669 688.771 345.653 690.784 344.606C699.376 340.124 707.923 335.562 716.468 330.994C719.684 329.28 722.9 327.565 726.116 325.851C733.017 322.169 739.915 318.484 746.813 314.797C748.596 313.844 750.379 312.892 752.217 311.911C755.623 310.091 759.029 308.271 762.434 306.448C765.447 304.84 768.464 303.239 771.486 301.649C774.751 299.924 777.988 298.149 781.218 296.363C787.039 293.964 790.613 293.852 796.902 294.331Z" fill="#F9FAFC"/>
<path d="M528.047 385.901C529.995 386.672 529.995 386.672 531.982 387.458C533.38 388.039 534.778 388.62 536.218 389.218C538.506 390.14 538.506 390.14 540.839 391.08C559.476 398.65 577.969 406.565 596.467 414.451C605.929 418.485 615.409 422.473 624.908 426.422C626.068 426.905 627.228 427.387 628.423 427.885C633.977 430.196 639.533 432.501 645.093 434.799C647.064 435.619 649.035 436.439 651.066 437.284C653.664 438.36 653.664 438.36 656.315 439.457C660.679 441.422 660.679 441.422 666.056 444.924C666.746 449.291 666.746 449.291 666.771 454.921C666.793 457.056 666.816 459.19 666.839 461.389C666.837 463.772 666.834 466.156 666.831 468.54C666.847 471.048 666.866 473.556 666.886 476.064C666.936 482.935 666.952 489.806 666.963 496.677C666.98 503.977 667.027 511.276 667.071 518.576C667.15 532.652 667.201 546.728 667.242 560.804C667.29 576.923 667.368 593.041 667.447 609.159C667.72 665.698 667.875 722.239 667.946 778.779C667.95 781.462 667.95 781.462 667.953 784.198C667.99 817.031 667.908 849.862 667.848 882.695C597.46 882.695 527.072 882.695 454.552 882.695C454.513 857.819 454.513 857.819 454.475 832.44C454.439 821.946 454.4 811.452 454.352 800.958C454.276 784.295 454.208 767.631 454.201 750.967C454.196 738.832 454.159 726.696 454.085 714.561C454.046 708.135 454.024 701.71 454.039 695.285C454.055 688.11 454.001 680.938 453.941 673.764C453.957 671.634 453.972 669.504 453.988 667.31C453.985 655.835 453.985 655.835 448.498 646.017C446.947 644.954 445.395 643.891 443.797 642.797C442.247 641.58 440.696 640.363 439.099 639.11C437.433 637.907 435.767 636.704 434.051 635.464C432.159 634.096 430.266 632.728 428.317 631.319C421.287 626.305 414.192 621.384 407.094 616.465C398.435 610.443 389.901 604.266 381.399 598.035C380.144 597.115 378.888 596.196 377.595 595.249C368.759 588.75 368.759 588.75 366.723 586.762C366.515 582.494 366.422 578.274 366.406 574.003C366.394 572.668 366.383 571.333 366.37 569.957C366.335 565.517 366.314 561.078 366.296 556.638C366.289 555.124 366.282 553.611 366.274 552.051C366.237 544.037 366.211 536.022 366.194 528.008C366.175 519.726 366.113 511.446 366.042 503.165C365.995 496.802 365.98 490.438 365.973 484.075C365.965 481.022 365.944 477.97 365.911 474.918C365.867 470.642 365.869 466.368 365.881 462.091C365.858 460.832 365.835 459.573 365.811 458.275C365.875 452.269 366.576 448.665 369.768 443.484C374.181 439.405 377.797 437.339 383.381 435.042C385.28 434.246 387.179 433.451 389.136 432.631C391.187 431.801 393.239 430.971 395.353 430.115C397.49 429.228 399.627 428.341 401.829 427.427C407.52 425.065 413.224 422.732 418.93 420.405C424.609 418.083 430.277 415.735 435.945 413.388C444.691 409.769 453.448 406.177 462.212 402.6C469.727 399.528 477.211 396.402 484.665 393.19C486.219 392.526 487.774 391.863 489.376 391.18C492.177 389.982 494.97 388.767 497.753 387.531C507.922 383.211 517.444 381.616 528.047 385.901Z" fill="#F9FAFC"/>
<path d="M266.348 556.994C271.665 559.916 276.417 563.434 281.248 567.062C284.113 569.149 286.979 571.235 289.846 573.321C291.3 574.392 292.755 575.463 294.253 576.566C301.056 581.548 307.955 586.397 314.856 591.249C316.189 592.191 317.523 593.133 318.898 594.103C327.925 600.472 337.003 606.769 346.111 613.028C362.045 623.983 377.863 635.088 393.61 646.299C394.747 647.107 395.885 647.914 397.057 648.747C400.098 650.912 403.129 653.089 406.156 655.273C408.652 657.068 408.652 657.068 411.198 658.898C415.797 662.605 418.493 665.399 419.144 671.322C419.141 672.905 419.138 674.489 419.134 676.12C419.142 678.849 419.142 678.849 419.149 681.634C419.13 684.626 419.13 684.626 419.11 687.68C419.111 689.781 419.111 691.883 419.112 694.048C419.11 699.811 419.092 705.574 419.067 711.336C419.044 717.359 419.042 723.381 419.038 729.404C419.027 740.809 418.998 752.213 418.962 763.618C418.918 777.875 418.898 792.132 418.878 806.389C418.843 831.825 418.772 857.26 418.703 882.695C377.299 882.695 335.894 882.695 293.235 882.695C293.235 851.491 293.235 820.286 293.235 788.136C270.758 788.136 248.281 788.136 225.123 788.136C225.123 819.341 225.123 850.545 225.123 882.695C183.718 882.695 142.314 882.695 99.6542 882.695C99.0783 828.924 99.0783 828.924 98.9336 802.355C98.8541 787.988 98.7533 773.621 98.5725 759.255C98.4293 747.88 98.337 736.506 98.305 725.13C98.2864 719.109 98.2427 713.09 98.1381 707.069C98.0222 700.34 98.0197 693.614 98.0263 686.884C97.9748 684.898 97.9232 682.912 97.8701 680.865C98.0115 667.64 98.0115 667.64 102.69 661.718C106.312 658.569 109.956 655.919 113.994 653.303C116.524 651.456 119.05 649.603 121.569 647.742C124.192 645.904 126.82 644.073 129.453 642.249C130.862 641.264 132.272 640.279 133.724 639.264C137.897 636.349 142.076 633.443 146.257 630.539C148.437 629.019 150.617 627.498 152.796 625.977C155.801 623.879 158.806 621.782 161.814 619.687C170.243 613.813 178.642 607.899 187.034 601.974C188.382 601.023 189.731 600.071 191.12 599.09C199.57 593.123 208.017 587.151 216.462 581.176C220.53 578.305 224.608 575.447 228.687 572.589C233.007 569.555 237.236 566.472 241.444 563.286C242.971 562.149 244.498 561.011 246.072 559.839C247.299 558.886 248.526 557.934 249.79 556.952C256.06 554.28 259.786 555.244 266.348 556.994Z" fill="#F9FAFC"/>
<path d="M701.904 430.916C702.496 430.916 703.087 430.916 703.697 430.916C703.697 580.003 703.697 729.09 703.697 882.695C735.046 882.695 766.395 882.695 798.694 882.695C798.694 883.273 798.694 883.851 798.694 884.446C766.754 884.446 734.813 884.446 701.904 884.446C701.904 734.781 701.904 585.116 701.904 430.916Z" fill="#F9FAFC"/>
<path d="M940.295 373.13C940.886 373.13 941.478 373.13 942.087 373.13C942.087 541.286 942.087 709.443 942.087 882.695C941.496 882.695 940.904 882.695 940.295 882.695C940.295 714.538 940.295 546.382 940.295 373.13Z" fill="#F9FAFC"/>
<path d="M667.848 451.929C668.44 451.929 669.031 451.929 669.641 451.929C669.641 543.808 669.641 635.687 669.641 730.351C669.049 730.351 668.458 730.351 667.848 730.351C667.848 638.471 667.848 546.592 667.848 451.929Z" fill="#F9FAFC"/>
<path d="M942.087 628.788C942.679 628.788 943.27 628.788 943.88 628.788C943.88 713.155 943.88 797.522 943.88 884.446C943.288 884.446 942.697 884.446 942.087 884.446C942.087 800.079 942.087 715.712 942.087 628.788Z" fill="#F9FAFC"/>
<path d="M942.087 376.632C942.679 376.632 943.27 376.632 943.88 376.632C943.88 459.843 943.88 543.055 943.88 628.788C943.288 628.788 942.697 628.788 942.087 628.788C942.087 545.576 942.087 462.365 942.087 376.632Z" fill="#F9FAFC"/>
<path d="M452.759 858.18C453.351 858.18 453.942 858.18 454.552 858.18C454.552 866.27 454.552 874.36 454.552 882.695C524.94 882.695 595.327 882.695 667.848 882.695C667.848 883.273 667.848 883.851 667.848 884.446C596.869 884.446 525.889 884.446 452.759 884.446C452.759 875.778 452.759 867.11 452.759 858.18Z" fill="#F9FAFC"/>
<path d="M225.123 788.136C225.714 788.136 226.306 788.136 226.915 788.136C226.915 819.919 226.915 851.701 226.915 884.446C184.328 884.446 141.74 884.446 97.8617 884.446C97.8617 883.868 97.8617 883.29 97.8617 882.695C139.858 882.695 181.854 882.695 225.123 882.695C225.123 851.491 225.123 820.286 225.123 788.136Z" fill="#F9FAFC"/>
<path d="M97.8617 667.312C98.4532 667.312 99.0447 667.312 99.6542 667.312C99.6542 738.388 99.6542 809.465 99.6542 882.695C99.0627 882.695 98.4712 882.695 97.8617 882.695C97.8617 811.618 97.8617 740.542 97.8617 667.312Z" fill="#F9FAFC"/>
<path d="M418.703 670.814C419.295 670.814 419.886 670.814 420.496 670.814C420.496 741.312 420.496 811.811 420.496 884.446C419.904 884.446 419.313 884.446 418.703 884.446C418.703 813.947 418.703 743.449 418.703 670.814Z" fill="#F9FAFC"/>
<path d="M96.0693 670.814C96.6608 670.814 97.2523 670.814 97.8617 670.814C97.8617 741.312 97.8617 811.811 97.8617 884.446C97.2703 884.446 96.6788 884.446 96.0693 884.446C96.0693 813.947 96.0693 743.449 96.0693 670.814Z" fill="#F9FAFC"/>
<path d="M452.759 651.552C453.351 651.552 453.942 651.552 454.552 651.552C454.552 719.739 454.552 787.926 454.552 858.18C453.96 858.18 453.369 858.18 452.759 858.18C452.759 789.993 452.759 721.805 452.759 651.552Z" fill="#F9FAFC"/>
<path d="M226.915 788.136C248.801 788.136 270.686 788.136 293.235 788.136C293.235 819.919 293.235 851.701 293.235 884.446C292.643 884.446 292.052 884.446 291.442 884.446C291.442 853.242 291.442 822.037 291.442 789.887C270.148 789.887 248.854 789.887 226.915 789.887C226.915 789.31 226.915 788.732 226.915 788.136Z" fill="#F9FAFC"/>
<path d="M667.848 730.351C668.44 730.351 669.031 730.351 669.641 730.351C669.641 781.202 669.641 832.054 669.641 884.446C669.049 884.446 668.458 884.446 667.848 884.446C667.848 833.594 667.848 782.743 667.848 730.351Z" fill="#F9FAFC"/>
<path d="M370.308 441.422C371.491 442 372.674 442.578 373.893 443.173C372.586 444.067 372.586 444.067 371.253 444.979C367.176 450.114 367.728 455.321 367.741 461.561C367.723 462.894 367.704 464.227 367.685 465.6C367.631 470.006 367.615 474.411 367.599 478.817C367.568 481.872 367.536 484.927 367.501 487.981C367.416 496.022 367.362 504.062 367.316 512.102C367.262 520.307 367.179 528.511 367.098 536.716C366.944 552.814 366.823 568.912 366.723 585.011C366.132 585.011 365.54 585.011 364.931 585.011C364.806 567.065 364.711 549.119 364.652 531.173C364.624 522.84 364.586 514.508 364.525 506.175C364.467 498.136 364.435 490.098 364.421 482.059C364.411 478.99 364.391 475.92 364.362 472.85C364.324 468.556 364.318 464.264 364.321 459.97C364.301 458.696 364.282 457.421 364.262 456.108C364.317 447.454 364.317 447.454 367.658 443.218C368.532 442.625 369.407 442.033 370.308 441.422Z" fill="#F9FAFC"/>
<path d="M666.056 448.426C666.648 448.426 667.239 448.426 667.848 448.426C667.848 495.811 667.848 543.195 667.848 592.015C667.257 592.015 666.665 592.015 666.056 592.015C666.056 544.631 666.056 497.247 666.056 448.426Z" fill="#F9FAFC"/>
<path d="M798.694 882.695C846.014 882.695 893.334 882.695 942.087 882.695C942.087 883.273 942.087 883.851 942.087 884.446C894.768 884.446 847.448 884.446 798.694 884.446C798.694 883.868 798.694 883.29 798.694 882.695Z" fill="#F9FAFC"/>
<path d="M666.056 592.015C666.648 592.015 667.239 592.015 667.848 592.015C667.848 635.932 667.848 679.849 667.848 725.097C667.257 725.097 666.665 725.097 666.056 725.097C666.056 681.18 666.056 637.263 666.056 592.015Z" fill="#F9FAFC"/>
<path d="M363.139 450.177C363.73 450.177 364.322 450.177 364.931 450.177C364.931 494.095 364.931 538.012 364.931 583.26C364.339 583.26 363.748 583.26 363.139 583.26C363.139 539.343 363.139 495.425 363.139 450.177Z" fill="#F9FAFC"/>
<path d="M293.235 882.695C334.639 882.695 376.044 882.695 418.703 882.695C418.703 883.273 418.703 883.851 418.703 884.446C377.299 884.446 335.894 884.446 293.235 884.446C293.235 883.868 293.235 883.29 293.235 882.695Z" fill="#F9FAFC"/>
<path d="M266.348 556.994C271.665 559.916 276.417 563.434 281.248 567.062C284.113 569.149 286.979 571.235 289.846 573.321C291.3 574.392 292.755 575.463 294.253 576.566C301.056 581.548 307.955 586.397 314.856 591.249C316.189 592.191 317.523 593.133 318.898 594.103C327.925 600.472 337.003 606.769 346.111 613.028C362.045 623.983 377.863 635.088 393.61 646.299C394.747 647.107 395.885 647.914 397.057 648.747C400.098 650.912 403.129 653.089 406.156 655.273C408.652 657.068 408.652 657.068 411.198 658.898C415.797 662.605 418.493 665.399 419.144 671.322C419.141 672.905 419.138 674.489 419.134 676.12C419.142 678.849 419.142 678.849 419.149 681.634C419.13 684.626 419.13 684.626 419.11 687.68C419.111 689.781 419.111 691.883 419.112 694.048C419.11 699.811 419.092 705.574 419.067 711.336C419.044 717.359 419.042 723.381 419.038 729.404C419.027 740.809 418.998 752.213 418.962 763.618C418.918 777.875 418.898 792.132 418.878 806.389C418.843 831.825 418.772 857.26 418.703 882.695C377.299 882.695 335.894 882.695 293.235 882.695C293.235 851.491 293.235 820.286 293.235 788.136C270.758 788.136 248.281 788.136 225.123 788.136C225.123 819.341 225.123 850.545 225.123 882.695C183.718 882.695 142.314 882.695 99.6542 882.695C99.0783 828.924 99.0783 828.924 98.9336 802.355C98.8541 787.988 98.7533 773.621 98.5725 759.255C98.4293 747.88 98.337 736.506 98.305 725.13C98.2864 719.109 98.2427 713.09 98.1381 707.069C98.0222 700.34 98.0197 693.614 98.0263 686.884C97.9748 684.898 97.9232 682.912 97.8701 680.865C98.0115 667.64 98.0115 667.64 102.69 661.718C106.312 658.569 109.956 655.919 113.994 653.303C116.524 651.456 119.05 649.603 121.569 647.742C124.192 645.904 126.82 644.073 129.453 642.249C130.862 641.264 132.272 640.279 133.724 639.264C137.897 636.349 142.076 633.443 146.257 630.539C148.437 629.019 150.617 627.498 152.796 625.977C155.801 623.879 158.806 621.782 161.814 619.687C170.243 613.813 178.642 607.899 187.034 601.974C188.382 601.023 189.731 600.071 191.12 599.09C199.57 593.123 208.017 587.151 216.462 581.176C220.53 578.305 224.608 575.447 228.687 572.589C233.007 569.555 237.236 566.472 241.444 563.286C242.971 562.149 244.498 561.011 246.072 559.839C247.299 558.886 248.526 557.934 249.79 556.952C256.06 554.28 259.786 555.244 266.348 556.994Z" fill="#F9FAFC"/>
<path d="M701.904 430.916C702.496 430.916 703.087 430.916 703.697 430.916C703.697 580.003 703.697 729.09 703.697 882.695C735.046 882.695 766.395 882.695 798.694 882.695C798.694 883.273 798.694 883.851 798.694 884.446C766.754 884.446 734.813 884.446 701.904 884.446C701.904 734.781 701.904 585.116 701.904 430.916Z" fill="#F9FAFC"/>
<path d="M940.295 373.13C940.886 373.13 941.478 373.13 942.087 373.13C942.087 541.286 942.087 709.443 942.087 882.695C941.496 882.695 940.904 882.695 940.295 882.695C940.295 714.538 940.295 546.382 940.295 373.13Z" fill="#F9FAFC"/>
<path d="M667.848 451.929C668.44 451.929 669.031 451.929 669.641 451.929C669.641 543.808 669.641 635.687 669.641 730.351C669.049 730.351 668.458 730.351 667.848 730.351C667.848 638.471 667.848 546.592 667.848 451.929Z" fill="#F9FAFC"/>
<path d="M942.087 628.788C942.679 628.788 943.27 628.788 943.88 628.788C943.88 713.155 943.88 797.522 943.88 884.446C943.288 884.446 942.697 884.446 942.087 884.446C942.087 800.079 942.087 715.712 942.087 628.788Z" fill="#F9FAFC"/>
<path d="M942.087 376.632C942.679 376.632 943.27 376.632 943.88 376.632C943.88 459.843 943.88 543.055 943.88 628.788C943.288 628.788 942.697 628.788 942.087 628.788C942.087 545.576 942.087 462.365 942.087 376.632Z" fill="#F9FAFC"/>
<path d="M452.759 858.18C453.351 858.18 453.942 858.18 454.552 858.18C454.552 866.27 454.552 874.36 454.552 882.695C524.94 882.695 595.327 882.695 667.848 882.695C667.848 883.273 667.848 883.851 667.848 884.446C596.869 884.446 525.889 884.446 452.759 884.446C452.759 875.778 452.759 867.11 452.759 858.18Z" fill="#F9FAFC"/>
<path d="M225.123 788.136C225.714 788.136 226.306 788.136 226.915 788.136C226.915 819.919 226.915 851.701 226.915 884.446C184.328 884.446 141.74 884.446 97.8617 884.446C97.8617 883.868 97.8617 883.29 97.8617 882.695C139.858 882.695 181.854 882.695 225.123 882.695C225.123 851.491 225.123 820.286 225.123 788.136Z" fill="#F9FAFC"/>
<path d="M97.8617 667.312C98.4532 667.312 99.0447 667.312 99.6542 667.312C99.6542 738.388 99.6542 809.465 99.6542 882.695C99.0627 882.695 98.4712 882.695 97.8617 882.695C97.8617 811.618 97.8617 740.542 97.8617 667.312Z" fill="#F9FAFC"/>
<path d="M418.703 670.814C419.295 670.814 419.886 670.814 420.496 670.814C420.496 741.312 420.496 811.811 420.496 884.446C419.904 884.446 419.313 884.446 418.703 884.446C418.703 813.947 418.703 743.449 418.703 670.814Z" fill="#F9FAFC"/>
<path d="M96.0693 670.814C96.6608 670.814 97.2523 670.814 97.8617 670.814C97.8617 741.312 97.8617 811.811 97.8617 884.446C97.2703 884.446 96.6788 884.446 96.0693 884.446C96.0693 813.947 96.0693 743.449 96.0693 670.814Z" fill="#F9FAFC"/>
<path d="M452.759 651.552C453.351 651.552 453.942 651.552 454.552 651.552C454.552 719.739 454.552 787.926 454.552 858.18C453.96 858.18 453.369 858.18 452.759 858.18C452.759 789.993 452.759 721.805 452.759 651.552Z" fill="#F9FAFC"/>
<path d="M226.915 788.136C248.801 788.136 270.686 788.136 293.235 788.136C293.235 819.919 293.235 851.701 293.235 884.446C292.643 884.446 292.052 884.446 291.442 884.446C291.442 853.242 291.442 822.037 291.442 789.887C270.148 789.887 248.854 789.887 226.915 789.887C226.915 789.31 226.915 788.732 226.915 788.136Z" fill="#F9FAFC"/>
<path d="M667.848 730.351C668.44 730.351 669.031 730.351 669.641 730.351C669.641 781.202 669.641 832.054 669.641 884.446C669.049 884.446 668.458 884.446 667.848 884.446C667.848 833.594 667.848 782.743 667.848 730.351Z" fill="#F9FAFC"/>
<path d="M370.308 441.422C371.491 442 372.674 442.578 373.893 443.173C372.586 444.067 372.586 444.067 371.253 444.979C367.176 450.114 367.728 455.321 367.741 461.561C367.723 462.894 367.704 464.227 367.685 465.6C367.631 470.006 367.615 474.411 367.599 478.817C367.568 481.872 367.536 484.927 367.501 487.981C367.416 496.022 367.362 504.062 367.316 512.102C367.262 520.307 367.179 528.511 367.098 536.716C366.944 552.814 366.823 568.912 366.723 585.011C366.132 585.011 365.54 585.011 364.931 585.011C364.806 567.065 364.711 549.119 364.652 531.173C364.624 522.84 364.586 514.508 364.525 506.175C364.467 498.136 364.435 490.098 364.421 482.059C364.411 478.99 364.391 475.92 364.362 472.85C364.324 468.556 364.318 464.264 364.321 459.97C364.301 458.696 364.282 457.421 364.262 456.108C364.317 447.454 364.317 447.454 367.658 443.218C368.532 442.625 369.407 442.033 370.308 441.422Z" fill="#F9FAFC"/>
<path d="M666.056 448.426C666.648 448.426 667.239 448.426 667.848 448.426C667.848 495.811 667.848 543.195 667.848 592.015C667.257 592.015 666.665 592.015 666.056 592.015C666.056 544.631 666.056 497.247 666.056 448.426Z" fill="#F9FAFC"/>
<path d="M666.056 592.015C666.648 592.015 667.239 592.015 667.848 592.015C667.848 635.932 667.848 679.849 667.848 725.097C667.257 725.097 666.665 725.097 666.056 725.097C666.056 681.18 666.056 637.263 666.056 592.015Z" fill="#F9FAFC"/>
<path d="M363.139 450.177C363.73 450.177 364.322 450.177 364.931 450.177C364.931 494.095 364.931 538.012 364.931 583.26C364.339 583.26 363.748 583.26 363.139 583.26C363.139 539.343 363.139 495.425 363.139 450.177Z" fill="#F9FAFC"/>
<path d="M293.235 882.695C334.639 882.695 376.044 882.695 418.703 882.695C418.703 883.273 418.703 883.851 418.703 884.446C377.299 884.446 335.894 884.446 293.235 884.446C293.235 883.868 293.235 883.29 293.235 882.695Z" fill="#F9FAFC"/>
<path d="M780.125 164.487L660.215 230.063C658.291 231.115 657.094 233.134 657.094 235.327V320.829C657.094 325.422 662.043 328.312 666.042 326.055L780.06 261.722C781.8 260.74 783.915 260.689 785.701 261.585L915.471 326.74C919.461 328.743 924.163 325.842 924.163 321.378V235.523C924.163 233.227 922.853 231.132 920.788 230.128L785.63 164.356C783.882 163.505 781.831 163.554 780.125 164.487Z" fill="#6683A0"/>
</g>
<defs>
<clipPath id="clip0_16_420">
<rect width="1040" height="1040" fill="white"/>
</clipPath>
</defs>
</svg>
