<svg width="1040" height="1040" viewBox="0 0 1040 1040" fill="none" xmlns="http://www.w3.org/2000/svg">
<path d="M796.902 294.331C802.019 296.381 802.019 296.381 807.355 299.276C810.355 300.879 810.355 300.879 813.414 302.513C815.565 303.689 817.716 304.865 819.867 306.041C823.25 307.859 826.637 309.668 830.024 311.477C832.331 312.71 834.636 313.945 836.94 315.183C847.919 321.076 859.029 326.708 870.167 332.308C884.817 339.706 899.38 347.245 913.857 354.962C915.49 355.833 917.123 356.703 918.806 357.6C927.231 362.113 927.231 362.113 931.333 364.374C932.87 364.871 934.408 365.368 935.992 365.879C940.295 369.628 940.295 369.628 941.117 373.476C941.434 378.914 941.444 384.291 941.373 389.737C941.384 392.887 941.384 392.887 941.396 396.1C941.408 401.939 941.38 407.775 941.335 413.614C941.296 419.905 941.309 426.197 941.316 432.489C941.321 443.393 941.293 454.297 941.242 465.201C941.17 480.967 941.146 496.732 941.135 512.498C941.115 538.075 941.056 563.652 940.971 589.23C940.889 614.079 940.825 638.928 940.787 663.777C940.785 665.324 940.782 666.871 940.78 668.465C940.761 680.561 940.744 692.657 940.727 704.754C940.642 764.068 940.462 823.381 940.295 882.695C862.217 882.695 784.14 882.695 703.697 882.695C703.609 850.163 703.521 817.632 703.431 784.114C703.367 763.557 703.303 743 703.235 722.443C703.199 711.648 703.163 700.853 703.128 690.059C703.123 688.706 703.119 687.353 703.114 685.959C703.043 664.102 702.984 642.245 702.93 620.388C702.875 597.964 702.805 575.541 702.724 553.118C702.674 539.276 702.634 525.435 702.608 511.593C702.587 500.988 702.547 490.383 702.5 479.778C702.484 475.421 702.474 471.064 702.47 466.707C702.464 460.774 702.437 454.842 702.403 448.909C702.407 447.172 702.41 445.434 702.414 443.644C702.401 442.056 702.387 440.469 702.373 438.833C702.367 436.778 702.367 436.778 702.361 434.682C701.834 430.335 700.728 427.596 698.319 423.911C694.308 421.512 690.497 419.498 686.27 417.543C685.085 416.974 683.901 416.405 682.681 415.819C678.904 414.009 675.114 412.229 671.321 410.45C667.526 408.646 663.733 406.836 659.942 405.024C657.583 403.899 655.222 402.781 652.857 401.668C644.74 397.833 644.74 397.833 642.755 395.894C642.202 391.051 642.202 391.051 641.971 384.95C641.862 382.954 641.753 380.959 641.641 378.903C642.87 372.53 644.604 370.34 649.924 366.566C657.498 361.937 665.324 357.825 673.226 353.758C677.105 351.734 680.984 349.71 684.862 347.684C686.816 346.669 688.771 345.653 690.784 344.606C699.376 340.124 707.923 335.562 716.468 330.994C719.684 329.28 722.9 327.565 726.116 325.851C733.017 322.169 739.915 318.484 746.813 314.797C748.596 313.844 750.379 312.892 752.217 311.911C755.623 310.091 759.029 308.271 762.434 306.448C765.447 304.84 768.464 303.239 771.486 301.649C774.751 299.924 777.988 298.149 781.218 296.363C787.039 293.964 790.613 293.852 796.902 294.331Z" fill="#F9FAFC"/>
<path d="M528.047 385.901C529.995 386.672 529.995 386.672 531.982 387.458C533.38 388.039 534.778 388.62 536.218 389.218C538.506 390.14 538.506 390.14 540.839 391.08C559.477 398.65 577.969 406.565 596.467 414.451C605.929 418.485 615.409 422.473 624.908 426.422C626.068 426.905 627.228 427.387 628.423 427.885C633.977 430.196 639.533 432.501 645.093 434.799C647.064 435.619 649.035 436.439 651.066 437.284C653.664 438.36 653.664 438.36 656.315 439.457C660.679 441.422 660.679 441.422 666.056 444.924C666.746 449.291 666.746 449.291 666.771 454.921C666.793 457.056 666.816 459.19 666.839 461.389C666.837 463.772 666.834 466.156 666.831 468.54C666.847 471.048 666.866 473.556 666.886 476.064C666.936 482.935 666.952 489.806 666.963 496.677C666.98 503.977 667.027 511.276 667.071 518.576C667.15 532.652 667.201 546.728 667.242 560.804C667.29 576.923 667.368 593.041 667.447 609.159C667.72 665.698 667.875 722.239 667.946 778.779C667.95 781.462 667.95 781.462 667.953 784.198C667.99 817.031 667.908 849.862 667.848 882.695C597.46 882.695 527.072 882.695 454.552 882.695C454.513 857.819 454.513 857.819 454.475 832.44C454.439 821.946 454.4 811.452 454.352 800.958C454.276 784.295 454.208 767.631 454.201 750.967C454.196 738.832 454.159 726.696 454.085 714.561C454.046 708.135 454.024 701.71 454.039 695.285C454.055 688.11 454.001 680.938 453.941 673.764C453.957 671.634 453.972 669.504 453.988 667.31C453.985 655.835 453.985 655.835 448.498 646.017C446.947 644.954 445.395 643.891 443.797 642.797C442.247 641.58 440.696 640.363 439.099 639.11C437.433 637.907 435.767 636.704 434.051 635.464C432.159 634.096 430.266 632.728 428.316 631.319C421.287 626.305 414.192 621.384 407.094 616.465C398.435 610.443 389.901 604.266 381.399 598.035C380.144 597.115 378.888 596.196 377.595 595.249C368.759 588.75 368.759 588.75 366.723 586.762C366.515 582.494 366.422 578.274 366.406 574.003C366.394 572.668 366.383 571.333 366.37 569.957C366.335 565.517 366.314 561.078 366.296 556.638C366.289 555.124 366.282 553.611 366.274 552.051C366.237 544.037 366.211 536.022 366.194 528.008C366.174 519.726 366.113 511.446 366.042 503.165C365.995 496.802 365.98 490.438 365.973 484.075C365.965 481.022 365.944 477.97 365.911 474.918C365.867 470.642 365.869 466.368 365.881 462.091C365.858 460.832 365.835 459.573 365.811 458.275C365.875 452.269 366.576 448.665 369.768 443.484C374.181 439.405 377.797 437.339 383.381 435.042C385.28 434.246 387.179 433.451 389.136 432.631C391.187 431.801 393.239 430.971 395.353 430.115C397.49 429.228 399.627 428.341 401.829 427.427C407.52 425.065 413.224 422.732 418.93 420.405C424.609 418.083 430.277 415.735 435.945 413.388C444.691 409.769 453.448 406.177 462.212 402.6C469.727 399.528 477.211 396.402 484.665 393.19C486.219 392.526 487.774 391.863 489.376 391.18C492.177 389.982 494.97 388.767 497.753 387.531C507.922 383.211 517.444 381.616 528.047 385.901Z" fill="#F9FAFC"/>
<path d="M796.902 294.331C802.019 296.381 802.019 296.381 807.355 299.276C810.355 300.879 810.355 300.879 813.414 302.513C815.565 303.689 817.716 304.865 819.867 306.041C823.25 307.859 826.637 309.668 830.024 311.477C832.331 312.71 834.636 313.945 836.94 315.183C847.919 321.076 859.029 326.708 870.167 332.308C884.817 339.706 899.38 347.245 913.857 354.962C915.49 355.833 917.123 356.703 918.806 357.6C927.231 362.113 927.231 362.113 931.333 364.374C932.87 364.871 934.408 365.368 935.992 365.879C940.295 369.628 940.295 369.628 941.117 373.476C941.434 378.914 941.444 384.291 941.373 389.737C941.384 392.887 941.384 392.887 941.396 396.1C941.408 401.939 941.38 407.775 941.335 413.614C941.296 419.905 941.309 426.197 941.316 432.489C941.321 443.393 941.293 454.297 941.242 465.201C941.17 480.967 941.146 496.732 941.135 512.498C941.115 538.075 941.056 563.652 940.971 589.23C940.889 614.079 940.825 638.928 940.787 663.777C940.785 665.324 940.782 666.871 940.78 668.465C940.761 680.561 940.744 692.657 940.727 704.754C940.642 764.068 940.462 823.381 940.295 882.695C862.217 882.695 784.14 882.695 703.697 882.695C703.609 850.163 703.521 817.632 703.431 784.114C703.367 763.557 703.303 743 703.235 722.443C703.199 711.648 703.163 700.853 703.128 690.059C703.123 688.706 703.119 687.353 703.114 685.959C703.043 664.102 702.984 642.245 702.93 620.388C702.875 597.964 702.805 575.541 702.724 553.118C702.674 539.276 702.634 525.435 702.608 511.593C702.587 500.988 702.547 490.383 702.5 479.778C702.484 475.421 702.474 471.064 702.47 466.707C702.464 460.774 702.437 454.842 702.403 448.909C702.407 447.172 702.41 445.434 702.414 443.644C702.401 442.056 702.387 440.469 702.373 438.833C702.367 436.778 702.367 436.778 702.361 434.682C701.834 430.335 700.728 427.596 698.319 423.911C694.308 421.512 690.497 419.498 686.27 417.543C685.085 416.974 683.901 416.405 682.681 415.819C678.904 414.009 675.114 412.229 671.321 410.45C667.526 408.646 663.733 406.836 659.942 405.024C657.583 403.899 655.222 402.781 652.857 401.668C644.74 397.833 644.74 397.833 642.755 395.894C642.202 391.051 642.202 391.051 641.971 384.95C641.862 382.954 641.753 380.959 641.641 378.903C642.87 372.53 644.604 370.34 649.924 366.566C657.498 361.937 665.324 357.825 673.226 353.758C677.105 351.734 680.984 349.71 684.862 347.684C686.816 346.669 688.771 345.653 690.784 344.606C699.376 340.124 707.923 335.562 716.468 330.994C719.684 329.28 722.9 327.565 726.116 325.851C733.017 322.169 739.915 318.484 746.813 314.797C748.596 313.844 750.379 312.892 752.217 311.911C755.623 310.091 759.029 308.271 762.434 306.448C765.447 304.84 768.464 303.239 771.486 301.649C774.751 299.924 777.988 298.149 781.218 296.363C787.039 293.964 790.613 293.852 796.902 294.331Z" fill="#F9FAFC"/>
<path d="M528.047 385.901C529.995 386.672 529.995 386.672 531.982 387.458C533.38 388.039 534.778 388.62 536.218 389.218C538.506 390.14 538.506 390.14 540.839 391.08C559.477 398.65 577.969 406.565 596.467 414.451C605.929 418.485 615.409 422.473 624.908 426.422C626.068 426.905 627.228 427.387 628.423 427.885C633.977 430.196 639.533 432.501 645.093 434.799C647.064 435.619 649.035 436.439 651.066 437.284C653.664 438.36 653.664 438.36 656.315 439.457C660.679 441.422 660.679 441.422 666.056 444.924C666.746 449.291 666.746 449.291 666.771 454.921C666.793 457.056 666.816 459.19 666.839 461.389C666.837 463.772 666.834 466.156 666.831 468.54C666.847 471.048 666.866 473.556 666.886 476.064C666.936 482.935 666.952 489.806 666.963 496.677C666.98 503.977 667.027 511.276 667.071 518.576C667.15 532.652 667.201 546.728 667.242 560.804C667.29 576.923 667.368 593.041 667.447 609.159C667.72 665.698 667.875 722.239 667.946 778.779C667.95 781.462 667.95 781.462 667.953 784.198C667.99 817.031 667.908 849.862 667.848 882.695C597.46 882.695 527.072 882.695 454.552 882.695C454.513 857.819 454.513 857.819 454.475 832.44C454.439 821.946 454.4 811.452 454.352 800.958C454.276 784.295 454.208 767.631 454.201 750.967C454.196 738.832 454.159 726.696 454.085 714.561C454.046 708.135 454.024 701.71 454.039 695.285C454.055 688.11 454.001 680.938 453.941 673.764C453.957 671.634 453.972 669.504 453.988 667.31C453.985 655.835 453.985 655.835 448.498 646.017C446.947 644.954 445.395 643.891 443.797 642.797C442.247 641.58 440.696 640.363 439.099 639.11C437.433 637.907 435.767 636.704 434.051 635.464C432.159 634.096 430.266 632.728 428.316 631.319C421.287 626.305 414.192 621.384 407.094 616.465C398.435 610.443 389.901 604.266 381.399 598.035C380.144 597.115 378.888 596.196 377.595 595.249C368.759 588.75 368.759 588.75 366.723 586.762C366.515 582.494 366.422 578.274 366.406 574.003C366.394 572.668 366.383 571.333 366.37 569.957C366.335 565.517 366.314 561.078 366.296 556.638C366.289 555.124 366.282 553.611 366.274 552.051C366.237 544.037 366.211 536.022 366.194 528.008C366.174 519.726 366.113 511.446 366.042 503.165C365.995 496.802 365.98 490.438 365.973 484.075C365.965 481.022 365.944 477.97 365.911 474.918C365.867 470.642 365.869 466.368 365.881 462.091C365.858 460.832 365.835 459.573 365.811 458.275C365.875 452.269 366.576 448.665 369.768 443.484C374.181 439.405 377.797 437.339 383.381 435.042C385.28 434.246 387.179 433.451 389.136 432.631C391.187 431.801 393.239 430.971 395.353 430.115C397.49 429.228 399.627 428.341 401.829 427.427C407.52 425.065 413.224 422.732 418.93 420.405C424.609 418.083 430.277 415.735 435.945 413.388C444.691 409.769 453.448 406.177 462.212 402.6C469.727 399.528 477.211 396.402 484.665 393.19C486.219 392.526 487.774 391.863 489.376 391.18C492.177 389.982 494.97 388.767 497.753 387.531C507.922 383.211 517.444 381.616 528.047 385.901Z" fill="#F9FAFC"/>
<path d="M266.348 556.993C271.665 559.916 276.417 563.434 281.248 567.062C284.113 569.149 286.979 571.235 289.846 573.321C291.3 574.392 292.755 575.463 294.253 576.566C301.056 581.548 307.955 586.397 314.856 591.249C316.189 592.191 317.523 593.133 318.898 594.103C327.925 600.472 337.003 606.769 346.111 613.028C362.045 623.983 377.863 635.088 393.61 646.299C394.747 647.107 395.885 647.914 397.057 648.747C400.098 650.912 403.129 653.089 406.156 655.273C408.652 657.068 408.652 657.068 411.198 658.898C415.797 662.605 418.493 665.399 419.144 671.322C419.141 672.905 419.138 674.489 419.134 676.12C419.142 678.849 419.142 678.849 419.149 681.634C419.13 684.626 419.13 684.626 419.11 687.68C419.111 689.781 419.111 691.883 419.112 694.048C419.11 699.811 419.092 705.574 419.067 711.336C419.044 717.359 419.042 723.382 419.038 729.404C419.027 740.809 418.997 752.213 418.962 763.618C418.918 777.875 418.898 792.132 418.878 806.389C418.843 831.825 418.772 857.26 418.703 882.695C377.299 882.695 335.894 882.695 293.235 882.695C293.235 851.491 293.235 820.286 293.235 788.136C270.758 788.136 248.281 788.136 225.123 788.136C225.123 819.341 225.123 850.545 225.123 882.695C183.718 882.695 142.314 882.695 99.6542 882.695C99.0783 828.924 99.0783 828.924 98.9336 802.355C98.8541 787.988 98.7533 773.621 98.5725 759.255C98.4293 747.88 98.337 736.506 98.305 725.13C98.2864 719.109 98.2427 713.09 98.1381 707.069C98.0222 700.34 98.0197 693.614 98.0263 686.884C97.9748 684.898 97.9232 682.912 97.8701 680.865C98.0115 667.64 98.0115 667.64 102.69 661.718C106.312 658.569 109.956 655.919 113.993 653.303C116.524 651.456 119.05 649.603 121.569 647.742C124.192 645.904 126.82 644.073 129.453 642.249C130.862 641.264 132.272 640.279 133.724 639.264C137.897 636.349 142.076 633.443 146.257 630.539C148.437 629.019 150.617 627.498 152.796 625.977C155.801 623.879 158.806 621.782 161.814 619.687C170.243 613.813 178.642 607.899 187.034 601.974C188.382 601.023 189.731 600.071 191.12 599.09C199.57 593.123 208.017 587.151 216.462 581.176C220.53 578.305 224.608 575.447 228.687 572.589C233.007 569.555 237.236 566.472 241.444 563.286C242.971 562.149 244.498 561.011 246.072 559.839C247.299 558.886 248.526 557.934 249.79 556.952C256.06 554.28 259.786 555.244 266.348 556.993Z" fill="#F9FAFC"/>
<path d="M701.904 430.916C702.496 430.916 703.087 430.916 703.697 430.916C703.697 580.003 703.697 729.09 703.697 882.695C735.046 882.695 766.395 882.695 798.694 882.695C798.694 883.273 798.694 883.851 798.694 884.446C766.754 884.446 734.813 884.446 701.904 884.446C701.904 734.781 701.904 585.116 701.904 430.916Z" fill="#F9FAFC"/>
<path d="M940.295 373.13C940.886 373.13 941.478 373.13 942.087 373.13C942.087 541.286 942.087 709.443 942.087 882.695C941.496 882.695 940.904 882.695 940.295 882.695C940.295 714.538 940.295 546.382 940.295 373.13Z" fill="#F9FAFC"/>
<path d="M667.848 451.929C668.44 451.929 669.031 451.929 669.641 451.929C669.641 543.808 669.641 635.687 669.641 730.351C669.049 730.351 668.458 730.351 667.848 730.351C667.848 638.471 667.848 546.592 667.848 451.929Z" fill="#F9FAFC"/>
<path d="M942.087 628.788C942.679 628.788 943.27 628.788 943.88 628.788C943.88 713.155 943.88 797.522 943.88 884.446C943.288 884.446 942.697 884.446 942.087 884.446C942.087 800.079 942.087 715.712 942.087 628.788Z" fill="#F9FAFC"/>
<path d="M942.087 376.632C942.679 376.632 943.27 376.632 943.88 376.632C943.88 459.843 943.88 543.055 943.88 628.788C943.288 628.788 942.697 628.788 942.087 628.788C942.087 545.576 942.087 462.365 942.087 376.632Z" fill="#F9FAFC"/>
<path d="M452.759 858.18C453.351 858.18 453.942 858.18 454.552 858.18C454.552 866.27 454.552 874.36 454.552 882.695C524.94 882.695 595.327 882.695 667.848 882.695C667.848 883.273 667.848 883.851 667.848 884.446C596.869 884.446 525.889 884.446 452.759 884.446C452.759 875.778 452.759 867.11 452.759 858.18Z" fill="#F9FAFC"/>
<path d="M225.123 788.136C225.714 788.136 226.306 788.136 226.915 788.136C226.915 819.918 226.915 851.701 226.915 884.446C184.328 884.446 141.74 884.446 97.8617 884.446C97.8617 883.868 97.8617 883.29 97.8617 882.695C139.858 882.695 181.854 882.695 225.123 882.695C225.123 851.491 225.123 820.286 225.123 788.136Z" fill="#F9FAFC"/>
<path d="M97.8617 667.312C98.4532 667.312 99.0447 667.312 99.6542 667.312C99.6542 738.388 99.6542 809.465 99.6542 882.695C99.0627 882.695 98.4712 882.695 97.8617 882.695C97.8617 811.618 97.8617 740.542 97.8617 667.312Z" fill="#F9FAFC"/>
<path d="M418.703 670.814C419.295 670.814 419.886 670.814 420.496 670.814C420.496 741.312 420.496 811.811 420.496 884.446C419.904 884.446 419.313 884.446 418.703 884.446C418.703 813.947 418.703 743.449 418.703 670.814Z" fill="#F9FAFC"/>
<path d="M96.0693 670.814C96.6608 670.814 97.2523 670.814 97.8617 670.814C97.8617 741.312 97.8617 811.811 97.8617 884.446C97.2703 884.446 96.6788 884.446 96.0693 884.446C96.0693 813.947 96.0693 743.449 96.0693 670.814Z" fill="#F9FAFC"/>
<path d="M452.759 651.552C453.351 651.552 453.942 651.552 454.552 651.552C454.552 719.739 454.552 787.926 454.552 858.18C453.96 858.18 453.369 858.18 452.759 858.18C452.759 789.993 452.759 721.805 452.759 651.552Z" fill="#F9FAFC"/>
<path d="M226.915 788.136C248.801 788.136 270.686 788.136 293.235 788.136C293.235 819.918 293.235 851.701 293.235 884.446C292.643 884.446 292.052 884.446 291.442 884.446C291.442 853.242 291.442 822.037 291.442 789.887C270.148 789.887 248.854 789.887 226.915 789.887C226.915 789.31 226.915 788.732 226.915 788.136Z" fill="#F9FAFC"/>
<path d="M667.848 730.351C668.44 730.351 669.031 730.351 669.641 730.351C669.641 781.202 669.641 832.053 669.641 884.446C669.049 884.446 668.458 884.446 667.848 884.446C667.848 833.594 667.848 782.743 667.848 730.351Z" fill="#F9FAFC"/>
<path d="M370.308 441.422C371.491 442 372.674 442.578 373.893 443.173C372.586 444.067 372.586 444.067 371.253 444.979C367.176 450.114 367.728 455.321 367.741 461.561C367.723 462.894 367.704 464.227 367.685 465.6C367.631 470.006 367.615 474.411 367.599 478.817C367.568 481.872 367.536 484.927 367.501 487.981C367.416 496.022 367.362 504.062 367.316 512.102C367.262 520.307 367.179 528.511 367.098 536.716C366.944 552.814 366.823 568.912 366.723 585.011C366.132 585.011 365.54 585.011 364.931 585.011C364.806 567.065 364.711 549.119 364.652 531.173C364.624 522.84 364.586 514.508 364.525 506.175C364.467 498.136 364.435 490.098 364.421 482.059C364.411 478.99 364.391 475.92 364.362 472.85C364.323 468.556 364.318 464.264 364.321 459.97C364.301 458.696 364.282 457.421 364.262 456.108C364.317 447.454 364.317 447.454 367.658 443.218C368.532 442.625 369.407 442.033 370.308 441.422Z" fill="#F9FAFC"/>
<path d="M666.056 448.426C666.648 448.426 667.239 448.426 667.848 448.426C667.848 495.811 667.848 543.195 667.848 592.015C667.257 592.015 666.665 592.015 666.056 592.015C666.056 544.631 666.056 497.247 666.056 448.426Z" fill="#F9FAFC"/>
<path d="M798.694 882.695C846.014 882.695 893.334 882.695 942.087 882.695C942.087 883.273 942.087 883.851 942.087 884.446C894.768 884.446 847.448 884.446 798.694 884.446C798.694 883.868 798.694 883.29 798.694 882.695Z" fill="#F9FAFC"/>
<path d="M666.056 592.015C666.648 592.015 667.239 592.015 667.848 592.015C667.848 635.932 667.848 679.849 667.848 725.097C667.257 725.097 666.665 725.097 666.056 725.097C666.056 681.18 666.056 637.263 666.056 592.015Z" fill="#F9FAFC"/>
<path d="M363.139 450.177C363.73 450.177 364.322 450.177 364.931 450.177C364.931 494.095 364.931 538.012 364.931 583.26C364.339 583.26 363.748 583.26 363.139 583.26C363.139 539.343 363.139 495.425 363.139 450.177Z" fill="#F9FAFC"/>
<path d="M293.235 882.695C334.639 882.695 376.044 882.695 418.703 882.695C418.703 883.273 418.703 883.851 418.703 884.446C377.299 884.446 335.894 884.446 293.235 884.446C293.235 883.868 293.235 883.29 293.235 882.695Z" fill="#F9FAFC"/>
<path d="M266.348 556.993C271.665 559.916 276.417 563.434 281.248 567.062C284.113 569.149 286.979 571.235 289.846 573.321C291.3 574.392 292.755 575.463 294.253 576.566C301.056 581.548 307.955 586.397 314.856 591.249C316.189 592.191 317.523 593.133 318.898 594.103C327.925 600.472 337.003 606.769 346.111 613.028C362.045 623.983 377.863 635.088 393.61 646.299C394.747 647.107 395.885 647.914 397.057 648.747C400.098 650.912 403.129 653.089 406.156 655.273C408.652 657.068 408.652 657.068 411.198 658.898C415.797 662.605 418.493 665.399 419.144 671.322C419.141 672.905 419.138 674.489 419.134 676.12C419.142 678.849 419.142 678.849 419.149 681.634C419.13 684.626 419.13 684.626 419.11 687.68C419.111 689.781 419.111 691.883 419.112 694.048C419.11 699.811 419.092 705.574 419.067 711.336C419.044 717.359 419.042 723.382 419.038 729.404C419.027 740.809 418.997 752.213 418.962 763.618C418.918 777.875 418.898 792.132 418.878 806.389C418.843 831.825 418.772 857.26 418.703 882.695C377.299 882.695 335.894 882.695 293.235 882.695C293.235 851.491 293.235 820.286 293.235 788.136C270.758 788.136 248.281 788.136 225.123 788.136C225.123 819.341 225.123 850.545 225.123 882.695C183.718 882.695 142.314 882.695 99.6542 882.695C99.0783 828.924 99.0783 828.924 98.9336 802.355C98.8541 787.988 98.7533 773.621 98.5725 759.255C98.4293 747.88 98.337 736.506 98.305 725.13C98.2864 719.109 98.2427 713.09 98.1381 707.069C98.0222 700.34 98.0197 693.614 98.0263 686.884C97.9748 684.898 97.9232 682.912 97.8701 680.865C98.0115 667.64 98.0115 667.64 102.69 661.718C106.312 658.569 109.956 655.919 113.993 653.303C116.524 651.456 119.05 649.603 121.569 647.742C124.192 645.904 126.82 644.073 129.453 642.249C130.862 641.264 132.272 640.279 133.724 639.264C137.897 636.349 142.076 633.443 146.257 630.539C148.437 629.019 150.617 627.498 152.796 625.977C155.801 623.879 158.806 621.782 161.814 619.687C170.243 613.813 178.642 607.899 187.034 601.974C188.382 601.023 189.731 600.071 191.12 599.09C199.57 593.123 208.017 587.151 216.462 581.176C220.53 578.305 224.608 575.447 228.687 572.589C233.007 569.555 237.236 566.472 241.444 563.286C242.971 562.149 244.498 561.011 246.072 559.839C247.299 558.886 248.526 557.934 249.79 556.952C256.06 554.28 259.786 555.244 266.348 556.993Z" fill="#F9FAFC"/>
<path d="M701.904 430.916C702.496 430.916 703.087 430.916 703.697 430.916C703.697 580.003 703.697 729.09 703.697 882.695C735.046 882.695 766.395 882.695 798.694 882.695C798.694 883.273 798.694 883.851 798.694 884.446C766.754 884.446 734.813 884.446 701.904 884.446C701.904 734.781 701.904 585.116 701.904 430.916Z" fill="#F9FAFC"/>
<path d="M940.295 373.13C940.886 373.13 941.478 373.13 942.087 373.13C942.087 541.286 942.087 709.443 942.087 882.695C941.496 882.695 940.904 882.695 940.295 882.695C940.295 714.538 940.295 546.382 940.295 373.13Z" fill="#F9FAFC"/>
<path d="M667.848 451.929C668.44 451.929 669.031 451.929 669.641 451.929C669.641 543.808 669.641 635.687 669.641 730.351C669.049 730.351 668.458 730.351 667.848 730.351C667.848 638.471 667.848 546.592 667.848 451.929Z" fill="#F9FAFC"/>
<path d="M942.087 628.788C942.679 628.788 943.27 628.788 943.88 628.788C943.88 713.155 943.88 797.522 943.88 884.446C943.288 884.446 942.697 884.446 942.087 884.446C942.087 800.079 942.087 715.712 942.087 628.788Z" fill="#F9FAFC"/>
<path d="M942.087 376.632C942.679 376.632 943.27 376.632 943.88 376.632C943.88 459.843 943.88 543.055 943.88 628.788C943.288 628.788 942.697 628.788 942.087 628.788C942.087 545.576 942.087 462.365 942.087 376.632Z" fill="#F9FAFC"/>
<path d="M452.759 858.18C453.351 858.18 453.942 858.18 454.552 858.18C454.552 866.27 454.552 874.36 454.552 882.695C524.94 882.695 595.327 882.695 667.848 882.695C667.848 883.273 667.848 883.851 667.848 884.446C596.869 884.446 525.889 884.446 452.759 884.446C452.759 875.778 452.759 867.11 452.759 858.18Z" fill="#F9FAFC"/>
<path d="M225.123 788.136C225.714 788.136 226.306 788.136 226.915 788.136C226.915 819.918 226.915 851.701 226.915 884.446C184.328 884.446 141.74 884.446 97.8617 884.446C97.8617 883.868 97.8617 883.29 97.8617 882.695C139.858 882.695 181.854 882.695 225.123 882.695C225.123 851.491 225.123 820.286 225.123 788.136Z" fill="#F9FAFC"/>
<path d="M97.8617 667.312C98.4532 667.312 99.0447 667.312 99.6542 667.312C99.6542 738.388 99.6542 809.465 99.6542 882.695C99.0627 882.695 98.4712 882.695 97.8617 882.695C97.8617 811.618 97.8617 740.542 97.8617 667.312Z" fill="#F9FAFC"/>
<path d="M418.703 670.814C419.295 670.814 419.886 670.814 420.496 670.814C420.496 741.312 420.496 811.811 420.496 884.446C419.904 884.446 419.313 884.446 418.703 884.446C418.703 813.947 418.703 743.449 418.703 670.814Z" fill="#F9FAFC"/>
<path d="M96.0693 670.814C96.6608 670.814 97.2523 670.814 97.8617 670.814C97.8617 741.312 97.8617 811.811 97.8617 884.446C97.2703 884.446 96.6788 884.446 96.0693 884.446C96.0693 813.947 96.0693 743.449 96.0693 670.814Z" fill="#F9FAFC"/>
<path d="M452.759 651.552C453.351 651.552 453.942 651.552 454.552 651.552C454.552 719.739 454.552 787.926 454.552 858.18C453.96 858.18 453.369 858.18 452.759 858.18C452.759 789.993 452.759 721.805 452.759 651.552Z" fill="#F9FAFC"/>
<path d="M226.915 788.136C248.801 788.136 270.686 788.136 293.235 788.136C293.235 819.918 293.235 851.701 293.235 884.446C292.643 884.446 292.052 884.446 291.442 884.446C291.442 853.242 291.442 822.037 291.442 789.887C270.148 789.887 248.854 789.887 226.915 789.887C226.915 789.31 226.915 788.732 226.915 788.136Z" fill="#F9FAFC"/>
<path d="M667.848 730.351C668.44 730.351 669.031 730.351 669.641 730.351C669.641 781.202 669.641 832.053 669.641 884.446C669.049 884.446 668.458 884.446 667.848 884.446C667.848 833.594 667.848 782.743 667.848 730.351Z" fill="#F9FAFC"/>
<path d="M370.308 441.422C371.491 442 372.674 442.578 373.893 443.173C372.586 444.067 372.586 444.067 371.253 444.979C367.176 450.114 367.728 455.321 367.741 461.561C367.723 462.894 367.704 464.227 367.685 465.6C367.631 470.006 367.615 474.411 367.599 478.817C367.568 481.872 367.536 484.927 367.501 487.981C367.416 496.022 367.362 504.062 367.316 512.102C367.262 520.307 367.179 528.511 367.098 536.716C366.944 552.814 366.823 568.912 366.723 585.011C366.132 585.011 365.54 585.011 364.931 585.011C364.806 567.065 364.711 549.119 364.652 531.173C364.624 522.84 364.586 514.508 364.525 506.175C364.467 498.136 364.435 490.098 364.421 482.059C364.411 478.99 364.391 475.92 364.362 472.85C364.323 468.556 364.318 464.264 364.321 459.97C364.301 458.696 364.282 457.421 364.262 456.108C364.317 447.454 364.317 447.454 367.658 443.218C368.532 442.625 369.407 442.033 370.308 441.422Z" fill="#F9FAFC"/>
<path d="M666.056 448.426C666.648 448.426 667.239 448.426 667.848 448.426C667.848 495.811 667.848 543.195 667.848 592.015C667.257 592.015 666.665 592.015 666.056 592.015C666.056 544.631 666.056 497.247 666.056 448.426Z" fill="#F9FAFC"/>
<path d="M666.056 592.015C666.648 592.015 667.239 592.015 667.848 592.015C667.848 635.932 667.848 679.849 667.848 725.097C667.257 725.097 666.665 725.097 666.056 725.097C666.056 681.18 666.056 637.263 666.056 592.015Z" fill="#F9FAFC"/>
<path d="M363.139 450.177C363.73 450.177 364.322 450.177 364.931 450.177C364.931 494.095 364.931 538.012 364.931 583.26C364.339 583.26 363.748 583.26 363.139 583.26C363.139 539.343 363.139 495.425 363.139 450.177Z" fill="#F9FAFC"/>
<path d="M293.235 882.695C334.639 882.695 376.044 882.695 418.703 882.695C418.703 883.273 418.703 883.851 418.703 884.446C377.299 884.446 335.894 884.446 293.235 884.446C293.235 883.868 293.235 883.29 293.235 882.695Z" fill="#F9FAFC"/>
<path d="M780.125 164.487L660.215 230.063C658.291 231.115 657.094 233.134 657.094 235.327V320.829C657.094 325.422 662.043 328.312 666.042 326.055L780.06 261.722C781.8 260.74 783.915 260.689 785.701 261.585L915.471 326.74C919.461 328.743 924.163 325.842 924.163 321.378V235.523C924.163 233.227 922.853 231.132 920.788 230.128L785.63 164.356C783.882 163.505 781.831 163.554 780.125 164.487Z" fill="#6683A0"/>
<path d="M439.832 956L425.576 918.2H430.472L443.432 953.264H441.2L454.52 918.2H458.912L472.088 953.264H469.856L483.032 918.2H487.712L473.384 956H468.56L455.888 923.024H457.4L444.656 956H439.832ZM502.762 956L488.506 918.2H493.402L506.362 953.264H504.13L517.45 918.2H521.842L535.018 953.264H532.786L545.962 918.2H550.642L536.314 956H531.49L518.818 923.024H520.33L507.586 956H502.762ZM565.691 956L551.435 918.2H556.331L569.291 953.264H567.059L580.379 918.2H584.771L597.947 953.264H595.715L608.891 918.2H613.571L599.243 956H594.419L581.747 923.024H583.259L570.515 956H565.691ZM619.312 956.36C618.256 956.36 617.344 955.976 616.576 955.208C615.856 954.44 615.496 953.504 615.496 952.4C615.496 951.248 615.856 950.312 616.576 949.592C617.344 948.872 618.256 948.512 619.312 948.512C620.368 948.512 621.256 948.872 621.976 949.592C622.744 950.312 623.128 951.248 623.128 952.4C623.128 953.504 622.744 954.44 621.976 955.208C621.256 955.976 620.368 956.36 619.312 956.36ZM653.362 917.84C656.434 917.84 659.122 918.44 661.426 919.64C663.778 920.792 665.602 922.568 666.898 924.968C668.242 927.368 668.914 930.392 668.914 934.04V956H663.802V934.544C663.802 930.56 662.794 927.56 660.778 925.544C658.81 923.48 656.026 922.448 652.426 922.448C649.738 922.448 647.386 923 645.37 924.104C643.402 925.16 641.866 926.72 640.762 928.784C639.706 930.8 639.178 933.248 639.178 936.128V956H634.066V902.576H639.178V928.568L638.17 926.624C639.37 923.888 641.29 921.752 643.93 920.216C646.57 918.632 649.714 917.84 653.362 917.84ZM706.41 956V947.648L706.194 946.28V932.312C706.194 929.096 705.282 926.624 703.458 924.896C701.682 923.168 699.018 922.304 695.466 922.304C693.018 922.304 690.69 922.712 688.482 923.528C686.274 924.344 684.402 925.424 682.866 926.768L680.562 922.952C682.482 921.32 684.786 920.072 687.474 919.208C690.162 918.296 692.994 917.84 695.97 917.84C700.866 917.84 704.634 919.064 707.274 921.512C709.962 923.912 711.306 927.584 711.306 932.528V956H706.41ZM693.378 956.36C690.546 956.36 688.074 955.904 685.962 954.992C683.898 954.032 682.314 952.736 681.21 951.104C680.106 949.424 679.554 947.504 679.554 945.344C679.554 943.376 680.01 941.6 680.922 940.016C681.882 938.384 683.418 937.088 685.53 936.128C687.69 935.12 690.57 934.616 694.17 934.616H707.202V938.432H694.314C690.666 938.432 688.122 939.08 686.682 940.376C685.29 941.672 684.594 943.28 684.594 945.2C684.594 947.36 685.434 949.088 687.114 950.384C688.794 951.68 691.146 952.328 694.17 952.328C697.05 952.328 699.522 951.68 701.586 950.384C703.698 949.04 705.234 947.12 706.194 944.624L707.346 948.152C706.386 950.648 704.706 952.64 702.306 954.128C699.954 955.616 696.978 956.36 693.378 956.36ZM744.703 956.36C741.391 956.36 738.415 955.616 735.775 954.128C733.135 952.592 731.047 950.384 729.511 947.504C727.975 944.624 727.207 941.144 727.207 937.064C727.207 932.936 727.975 929.456 729.511 926.624C731.095 923.744 733.207 921.56 735.847 920.072C738.487 918.584 741.439 917.84 744.703 917.84C748.303 917.84 751.519 918.656 754.351 920.288C757.231 921.872 759.487 924.104 761.119 926.984C762.751 929.864 763.567 933.224 763.567 937.064C763.567 940.856 762.751 944.216 761.119 947.144C759.487 950.024 757.231 952.28 754.351 953.912C751.519 955.544 748.303 956.36 744.703 956.36ZM725.191 956V902.576H730.303V929.36L729.583 936.992L730.087 944.624V956H725.191ZM744.343 951.824C747.031 951.824 749.431 951.224 751.543 950.024C753.655 948.776 755.335 947.048 756.583 944.84C757.831 942.584 758.455 939.992 758.455 937.064C758.455 934.088 757.831 931.496 756.583 929.288C755.335 927.08 753.655 925.376 751.543 924.176C749.431 922.928 747.031 922.304 744.343 922.304C741.655 922.304 739.231 922.928 737.07 924.176C734.959 925.376 733.279 927.08 732.031 929.288C730.831 931.496 730.231 934.088 730.231 937.064C730.231 939.992 730.831 942.584 732.031 944.84C733.279 947.048 734.959 948.776 737.07 950.024C739.231 951.224 741.655 951.824 744.343 951.824ZM785.939 956.36C782.387 956.36 779.651 955.4 777.731 953.48C775.811 951.56 774.851 948.848 774.851 945.344V909.848H779.963V945.056C779.963 947.264 780.515 948.968 781.619 950.168C782.771 951.368 784.403 951.968 786.515 951.968C788.771 951.968 790.643 951.32 792.131 950.024L793.931 953.696C792.923 954.608 791.699 955.28 790.259 955.712C788.867 956.144 787.427 956.36 785.939 956.36ZM768.083 922.448V918.2H791.483V922.448H768.083ZM826.925 956V947.648L826.709 946.28V932.312C826.709 929.096 825.797 926.624 823.973 924.896C822.197 923.168 819.533 922.304 815.981 922.304C813.533 922.304 811.205 922.712 808.997 923.528C806.789 924.344 804.917 925.424 803.381 926.768L801.077 922.952C802.997 921.32 805.301 920.072 807.989 919.208C810.677 918.296 813.509 917.84 816.485 917.84C821.381 917.84 825.149 919.064 827.789 921.512C830.477 923.912 831.821 927.584 831.821 932.528V956H826.925ZM813.893 956.36C811.061 956.36 808.589 955.904 806.477 954.992C804.413 954.032 802.829 952.736 801.725 951.104C800.621 949.424 800.069 947.504 800.069 945.344C800.069 943.376 800.525 941.6 801.437 940.016C802.397 938.384 803.933 937.088 806.045 936.128C808.205 935.12 811.085 934.616 814.685 934.616H827.717V938.432H814.829C811.181 938.432 808.637 939.08 807.197 940.376C805.805 941.672 805.109 943.28 805.109 945.2C805.109 947.36 805.949 949.088 807.629 950.384C809.309 951.68 811.661 952.328 814.685 952.328C817.565 952.328 820.037 951.68 822.101 950.384C824.213 949.04 825.749 947.12 826.709 944.624L827.861 948.152C826.901 950.648 825.221 952.64 822.821 954.128C820.469 955.616 817.493 956.36 813.893 956.36ZM846.21 956.36C845.154 956.36 844.242 955.976 843.474 955.208C842.754 954.44 842.394 953.504 842.394 952.4C842.394 951.248 842.754 950.312 843.474 949.592C844.242 948.872 845.154 948.512 846.21 948.512C847.266 948.512 848.154 948.872 848.874 949.592C849.642 950.312 850.026 951.248 850.026 952.4C850.026 953.504 849.642 954.44 848.874 955.208C848.154 955.976 847.266 956.36 846.21 956.36ZM875.965 956.36C872.029 956.36 868.573 955.544 865.597 953.912C862.621 952.232 860.293 949.952 858.613 947.072C856.933 944.144 856.093 940.808 856.093 937.064C856.093 933.32 856.885 930.008 858.469 927.128C860.101 924.248 862.309 921.992 865.093 920.36C867.925 918.68 871.093 917.84 874.597 917.84C878.149 917.84 881.293 918.656 884.029 920.288C886.813 921.872 888.997 924.128 890.581 927.056C892.165 929.936 892.957 933.272 892.957 937.064C892.957 937.304 892.933 937.568 892.885 937.856C892.885 938.096 892.885 938.36 892.885 938.648H859.981V934.832H890.149L888.133 936.344C888.133 933.608 887.533 931.184 886.333 929.072C885.181 926.912 883.597 925.232 881.581 924.032C879.565 922.832 877.237 922.232 874.597 922.232C872.005 922.232 869.677 922.832 867.613 924.032C865.549 925.232 863.941 926.912 862.789 929.072C861.637 931.232 861.061 933.704 861.061 936.488V937.28C861.061 940.16 861.685 942.704 862.933 944.912C864.229 947.072 866.005 948.776 868.261 950.024C870.565 951.224 873.181 951.824 876.109 951.824C878.413 951.824 880.549 951.416 882.517 950.6C884.533 949.784 886.261 948.536 887.701 946.856L890.581 950.168C888.901 952.184 886.789 953.72 884.245 954.776C881.749 955.832 878.989 956.36 875.965 956.36ZM918.986 956.36C915.77 956.36 912.962 955.76 910.562 954.56C908.162 953.36 906.29 951.56 904.946 949.16C903.65 946.76 903.002 943.76 903.002 940.16V918.2H908.114V939.584C908.114 943.616 909.098 946.664 911.066 948.728C913.082 950.744 915.89 951.752 919.49 951.752C922.13 951.752 924.41 951.224 926.33 950.168C928.298 949.064 929.786 947.48 930.794 945.416C931.85 943.352 932.378 940.88 932.378 938V918.2H937.49V956H932.594V945.632L933.386 947.504C932.186 950.288 930.314 952.472 927.77 954.056C925.274 955.592 922.346 956.36 918.986 956.36Z" fill="#F9FAFC"/>
</svg>
