<svg width="1844" height="876" viewBox="0 0 1844 876" fill="none" xmlns="http://www.w3.org/2000/svg">
<path d="M693.844 541V388.273H735.307V447.932H790.193V388.273H831.656V541H790.193V481.341H735.307V541H693.844ZM884.717 541H839.973L890.385 388.273H947.061L997.473 541H952.728L919.319 430.332H918.126L884.717 541ZM876.365 480.744H960.484V511.767H876.365V480.744ZM1005.88 541V388.273H1072.1C1083.74 388.273 1093.51 389.839 1101.41 392.971C1109.37 396.103 1115.36 400.528 1119.38 406.245C1123.46 411.962 1125.5 418.699 1125.5 426.455C1125.5 432.072 1124.26 437.193 1121.77 441.817C1119.33 446.44 1115.9 450.318 1111.48 453.45C1107.05 456.533 1101.88 458.67 1095.97 459.864V461.355C1102.53 461.604 1108.5 463.269 1113.87 466.352C1119.23 469.384 1123.51 473.585 1126.69 478.955C1129.87 484.274 1131.46 490.538 1131.46 497.747C1131.46 506.099 1129.28 513.532 1124.9 520.045C1120.58 526.558 1114.41 531.678 1106.41 535.407C1098.4 539.136 1088.86 541 1077.77 541H1005.88ZM1047.35 507.889H1066.73C1073.69 507.889 1078.92 506.597 1082.4 504.011C1085.88 501.376 1087.62 497.499 1087.62 492.378C1087.62 488.798 1086.8 485.766 1085.15 483.28C1083.51 480.794 1081.18 478.905 1078.14 477.612C1075.16 476.32 1071.56 475.673 1067.33 475.673H1047.35V507.889ZM1047.35 450.02H1064.35C1067.98 450.02 1071.18 449.448 1073.97 448.305C1076.75 447.161 1078.92 445.521 1080.46 443.383C1082.05 441.195 1082.84 438.536 1082.84 435.403C1082.84 430.68 1081.15 427.076 1077.77 424.59C1074.39 422.055 1070.12 420.787 1064.94 420.787H1047.35V450.02ZM1135.68 421.682V388.273H1268.42V421.682H1222.48V541H1181.62V421.682H1135.68ZM1298.12 541H1253.38L1303.79 388.273H1360.47L1410.88 541H1366.13L1332.72 430.332H1331.53L1298.12 541ZM1289.77 480.744H1373.89V511.767H1289.77V480.744Z" fill="#0A2D55"/>
<path d="M692.64 607.424H710.4V610.448H692.64V607.424ZM693.024 622.928H713.232V626H689.472V592.4H712.512V595.472H693.024V622.928ZM736.425 626L721.545 592.4H725.385L739.305 624.032H737.193L751.209 592.4H754.809L739.929 626H736.425ZM768.613 607.424H786.373V610.448H768.613V607.424ZM768.997 622.928H789.205V626H765.445V592.4H788.485V595.472H768.997V622.928ZM803.314 626V592.4H815.89C818.739 592.4 821.187 592.864 823.235 593.792C825.283 594.688 826.851 596 827.939 597.728C829.059 599.424 829.619 601.488 829.619 603.92C829.619 606.288 829.059 608.336 827.939 610.064C826.851 611.76 825.283 613.072 823.235 614C821.187 614.896 818.739 615.344 815.89 615.344H805.282L806.866 613.712V626H803.314ZM826.258 626L817.619 613.808H821.458L830.147 626H826.258ZM806.866 614L805.282 612.32H815.794C819.155 612.32 821.699 611.584 823.427 610.112C825.186 608.64 826.066 606.576 826.066 603.92C826.066 601.232 825.186 599.152 823.427 597.68C821.699 596.208 819.155 595.472 815.794 595.472H805.282L806.866 593.792V614ZM851.309 626V613.52L852.125 615.728L837.869 592.4H841.661L854.189 612.896H852.173L864.701 592.4H868.253L853.997 615.728L854.813 613.52V626H851.309ZM922.42 592.4H925.925V626H922.42V592.4ZM901.396 626H897.844V592.4H901.396V626ZM922.756 610.496H901.012V607.376H922.756V610.496ZM957.339 626.288C954.811 626.288 952.459 625.872 950.283 625.04C948.139 624.176 946.267 622.976 944.667 621.44C943.099 619.872 941.867 618.064 940.971 616.016C940.107 613.936 939.675 611.664 939.675 609.2C939.675 606.736 940.107 604.48 940.971 602.432C941.867 600.352 943.099 598.544 944.667 597.008C946.267 595.44 948.139 594.24 950.283 593.408C952.427 592.544 954.779 592.112 957.339 592.112C959.867 592.112 962.203 592.544 964.347 593.408C966.491 594.24 968.347 595.424 969.915 596.96C971.515 598.496 972.747 600.304 973.611 602.384C974.507 604.464 974.955 606.736 974.955 609.2C974.955 611.664 974.507 613.936 973.611 616.016C972.747 618.096 971.515 619.904 969.915 621.44C968.347 622.976 966.491 624.176 964.347 625.04C962.203 625.872 959.867 626.288 957.339 626.288ZM957.339 623.12C959.355 623.12 961.211 622.784 962.907 622.112C964.635 621.408 966.123 620.432 967.371 619.184C968.651 617.904 969.643 616.432 970.347 614.768C971.051 613.072 971.403 611.216 971.403 609.2C971.403 607.184 971.051 605.344 970.347 603.68C969.643 601.984 968.651 600.512 967.371 599.264C966.123 597.984 964.635 597.008 962.907 596.336C961.211 595.632 959.355 595.28 957.339 595.28C955.323 595.28 953.451 595.632 951.723 596.336C949.995 597.008 948.491 597.984 947.211 599.264C945.963 600.512 944.971 601.984 944.235 603.68C943.531 605.344 943.179 607.184 943.179 609.2C943.179 611.184 943.531 613.024 944.235 614.72C944.971 616.416 945.963 617.904 947.211 619.184C948.491 620.432 949.995 621.408 951.723 622.112C953.451 622.784 955.323 623.12 957.339 623.12ZM988.677 626V592.4H991.605L1006.97 618.608H1005.43L1020.65 592.4H1023.57V626H1020.17V597.728H1020.98L1006.97 621.728H1005.29L991.173 597.728H992.085V626H988.677ZM1043.45 607.424H1061.21V610.448H1043.45V607.424ZM1043.83 622.928H1064.04V626H1040.28V592.4H1063.32V595.472H1043.83V622.928ZM1075.83 633.008L1077.95 624.128L1078.33 626.192C1077.59 626.192 1076.97 625.952 1076.46 625.472C1075.98 624.992 1075.74 624.368 1075.74 623.6C1075.74 622.832 1075.98 622.208 1076.46 621.728C1076.97 621.248 1077.58 621.008 1078.28 621.008C1079.02 621.008 1079.61 621.264 1080.06 621.776C1080.54 622.288 1080.78 622.896 1080.78 623.6C1080.78 623.856 1080.76 624.112 1080.73 624.368C1080.7 624.624 1080.63 624.912 1080.54 625.232C1080.44 625.552 1080.31 625.936 1080.15 626.384L1078.14 633.008H1075.83ZM1112.87 626V592.4H1125.45C1128.3 592.4 1130.75 592.864 1132.79 593.792C1134.84 594.688 1136.41 596 1137.5 597.728C1138.62 599.424 1139.18 601.488 1139.18 603.92C1139.18 606.288 1138.62 608.336 1137.5 610.064C1136.41 611.76 1134.84 613.072 1132.79 614C1130.75 614.928 1128.3 615.392 1125.45 615.392H1114.84L1116.43 613.712V626H1112.87ZM1116.43 614L1114.84 612.272H1125.35C1128.71 612.272 1131.26 611.552 1132.99 610.112C1134.75 608.64 1135.63 606.576 1135.63 603.92C1135.63 601.232 1134.75 599.152 1132.99 597.68C1131.26 596.208 1128.71 595.472 1125.35 595.472H1114.84L1116.43 593.792V614ZM1152.62 626V592.4H1165.19C1168.04 592.4 1170.49 592.864 1172.54 593.792C1174.59 594.688 1176.15 596 1177.24 597.728C1178.36 599.424 1178.92 601.488 1178.92 603.92C1178.92 606.288 1178.36 608.336 1177.24 610.064C1176.15 611.76 1174.59 613.072 1172.54 614C1170.49 614.896 1168.04 615.344 1165.19 615.344H1154.59L1156.17 613.712V626H1152.62ZM1175.56 626L1166.92 613.808H1170.76L1179.45 626H1175.56ZM1156.17 614L1154.59 612.32H1165.1C1168.46 612.32 1171 611.584 1172.73 610.112C1174.49 608.64 1175.37 606.576 1175.37 603.92C1175.37 601.232 1174.49 599.152 1172.73 597.68C1171 596.208 1168.46 595.472 1165.1 595.472H1154.59L1156.17 593.792V614ZM1207.75 626.288C1205.23 626.288 1202.87 625.872 1200.7 625.04C1198.55 624.176 1196.68 622.976 1195.08 621.44C1193.51 619.872 1192.28 618.064 1191.39 616.016C1190.52 613.936 1190.09 611.664 1190.09 609.2C1190.09 606.736 1190.52 604.48 1191.39 602.432C1192.28 600.352 1193.51 598.544 1195.08 597.008C1196.68 595.44 1198.55 594.24 1200.7 593.408C1202.84 592.544 1205.19 592.112 1207.75 592.112C1210.28 592.112 1212.62 592.544 1214.76 593.408C1216.91 594.24 1218.76 595.424 1220.33 596.96C1221.93 598.496 1223.16 600.304 1224.03 602.384C1224.92 604.464 1225.37 606.736 1225.37 609.2C1225.37 611.664 1224.92 613.936 1224.03 616.016C1223.16 618.096 1221.93 619.904 1220.33 621.44C1218.76 622.976 1216.91 624.176 1214.76 625.04C1212.62 625.872 1210.28 626.288 1207.75 626.288ZM1207.75 623.12C1209.77 623.12 1211.63 622.784 1213.32 622.112C1215.05 621.408 1216.54 620.432 1217.79 619.184C1219.07 617.904 1220.06 616.432 1220.76 614.768C1221.47 613.072 1221.82 611.216 1221.82 609.2C1221.82 607.184 1221.47 605.344 1220.76 603.68C1220.06 601.984 1219.07 600.512 1217.79 599.264C1216.54 597.984 1215.05 597.008 1213.32 596.336C1211.63 595.632 1209.77 595.28 1207.75 595.28C1205.74 595.28 1203.87 595.632 1202.14 596.336C1200.41 597.008 1198.91 597.984 1197.63 599.264C1196.38 600.512 1195.39 601.984 1194.65 603.68C1193.95 605.344 1193.59 607.184 1193.59 609.2C1193.59 611.184 1193.95 613.024 1194.65 614.72C1195.39 616.416 1196.38 617.904 1197.63 619.184C1198.91 620.432 1200.41 621.408 1202.14 622.112C1203.87 622.784 1205.74 623.12 1207.75 623.12ZM1239.09 626V592.4H1252.77C1256.35 592.4 1259.49 593.12 1262.18 594.56C1264.9 595.968 1267.01 597.936 1268.51 600.464C1270.02 602.992 1270.77 605.904 1270.77 609.2C1270.77 612.496 1270.02 615.408 1268.51 617.936C1267.01 620.464 1264.9 622.448 1262.18 623.888C1259.49 625.296 1256.35 626 1252.77 626H1239.09ZM1242.64 622.928H1252.58C1255.55 622.928 1258.13 622.352 1260.31 621.2C1262.51 620.016 1264.23 618.4 1265.44 616.352C1266.66 614.272 1267.27 611.888 1267.27 609.2C1267.27 606.48 1266.66 604.096 1265.44 602.048C1264.23 600 1262.51 598.4 1260.31 597.248C1258.13 596.064 1255.55 595.472 1252.58 595.472H1242.64V622.928ZM1298.04 626.288C1293.76 626.288 1290.38 625.056 1287.92 622.592C1285.45 620.128 1284.22 616.48 1284.22 611.648V592.4H1287.77V611.504C1287.77 615.472 1288.67 618.4 1290.46 620.288C1292.25 622.176 1294.78 623.12 1298.04 623.12C1301.34 623.12 1303.88 622.176 1305.68 620.288C1307.47 618.4 1308.36 615.472 1308.36 611.504V592.4H1311.82V611.648C1311.82 616.48 1310.59 620.128 1308.12 622.592C1305.69 625.056 1302.33 626.288 1298.04 626.288ZM1342.87 626.288C1340.35 626.288 1338.01 625.872 1335.87 625.04C1333.72 624.176 1331.87 622.976 1330.3 621.44C1328.73 619.904 1327.5 618.096 1326.6 616.016C1325.74 613.936 1325.31 611.664 1325.31 609.2C1325.31 606.736 1325.74 604.464 1326.6 602.384C1327.5 600.304 1328.73 598.496 1330.3 596.96C1331.9 595.424 1333.77 594.24 1335.91 593.408C1338.06 592.544 1340.39 592.112 1342.92 592.112C1345.35 592.112 1347.64 592.528 1349.79 593.36C1351.93 594.16 1353.74 595.376 1355.21 597.008L1352.95 599.264C1351.58 597.856 1350.06 596.848 1348.39 596.24C1346.73 595.6 1344.94 595.28 1343.02 595.28C1341 595.28 1339.13 595.632 1337.4 596.336C1335.67 597.008 1334.17 597.984 1332.89 599.264C1331.61 600.512 1330.6 601.984 1329.87 603.68C1329.16 605.344 1328.81 607.184 1328.81 609.2C1328.81 611.216 1329.16 613.072 1329.87 614.768C1330.6 616.432 1331.61 617.904 1332.89 619.184C1334.17 620.432 1335.67 621.408 1337.4 622.112C1339.13 622.784 1341 623.12 1343.02 623.12C1344.94 623.12 1346.73 622.8 1348.39 622.16C1350.06 621.52 1351.58 620.496 1352.95 619.088L1355.21 621.344C1353.74 622.976 1351.93 624.208 1349.79 625.04C1347.64 625.872 1345.34 626.288 1342.87 626.288ZM1374.65 626V595.472H1362.84V592.4H1390.01V595.472H1378.2V626H1374.65ZM1401.44 626V592.4H1405V626H1401.44ZM1418.38 626V623.552L1441.7 594.128L1442.09 595.472H1418.71V592.4H1445.35V594.848L1422.07 624.272L1421.64 622.928H1445.93V626H1418.38ZM1461.88 607.424H1479.64V610.448H1461.88V607.424ZM1462.27 622.928H1482.47V626H1458.71V592.4H1481.75V595.472H1462.27V622.928ZM1496.58 626V592.4H1510.26C1513.85 592.4 1516.98 593.12 1519.67 594.56C1522.39 595.968 1524.5 597.936 1526.01 600.464C1527.51 602.992 1528.26 605.904 1528.26 609.2C1528.26 612.496 1527.51 615.408 1526.01 617.936C1524.5 620.464 1522.39 622.448 1519.67 623.888C1516.98 625.296 1513.85 626 1510.26 626H1496.58ZM1500.13 622.928H1510.07C1513.05 622.928 1515.62 622.352 1517.8 621.2C1520.01 620.016 1521.72 618.4 1522.93 616.352C1524.15 614.272 1524.76 611.888 1524.76 609.2C1524.76 606.48 1524.15 604.096 1522.93 602.048C1521.72 600 1520.01 598.4 1517.8 597.248C1515.62 596.064 1513.05 595.472 1510.07 595.472H1500.13V622.928Z" fill="#0A2D55"/>
<path d="M363.24 683L355.32 662H358.04L365.24 681.48H364L371.4 662H373.84L381.16 681.48H379.92L387.24 662H389.84L381.88 683H379.2L372.16 664.68H373L365.92 683H363.24ZM398.201 683L390.281 662H393.001L400.201 681.48H398.961L406.361 662H408.801L416.121 681.48H414.881L422.201 662H424.801L416.841 683H414.161L407.121 664.68H407.961L400.881 683H398.201ZM433.162 683L425.242 662H427.962L435.162 681.48H433.922L441.322 662H443.762L451.082 681.48H449.842L457.162 662H459.762L451.802 683H449.122L442.082 664.68H442.922L435.842 683H433.162ZM462.951 683.2C462.364 683.2 461.858 682.987 461.431 682.56C461.031 682.133 460.831 681.613 460.831 681C460.831 680.36 461.031 679.84 461.431 679.44C461.858 679.04 462.364 678.84 462.951 678.84C463.538 678.84 464.031 679.04 464.431 679.44C464.858 679.84 465.071 680.36 465.071 681C465.071 681.613 464.858 682.133 464.431 682.56C464.031 682.987 463.538 683.2 462.951 683.2ZM481.868 661.8C483.574 661.8 485.068 662.133 486.348 662.8C487.654 663.44 488.668 664.427 489.388 665.76C490.134 667.093 490.508 668.773 490.508 670.8V683H487.668V671.08C487.668 668.867 487.108 667.2 485.988 666.08C484.894 664.933 483.348 664.36 481.348 664.36C479.854 664.36 478.548 664.667 477.428 665.28C476.334 665.867 475.481 666.733 474.868 667.88C474.281 669 473.988 670.36 473.988 671.96V683H471.148V653.32H473.988V667.76L473.428 666.68C474.094 665.16 475.161 663.973 476.628 663.12C478.094 662.24 479.841 661.8 481.868 661.8ZM511.339 683V678.36L511.219 677.6V669.84C511.219 668.053 510.712 666.68 509.699 665.72C508.712 664.76 507.232 664.28 505.259 664.28C503.899 664.28 502.605 664.507 501.379 664.96C500.152 665.413 499.112 666.013 498.259 666.76L496.979 664.64C498.045 663.733 499.325 663.04 500.819 662.56C502.312 662.053 503.885 661.8 505.539 661.8C508.259 661.8 510.352 662.48 511.819 663.84C513.312 665.173 514.059 667.213 514.059 669.96V683H511.339ZM504.099 683.2C502.525 683.2 501.152 682.947 499.979 682.44C498.832 681.907 497.952 681.187 497.339 680.28C496.725 679.347 496.419 678.28 496.419 677.08C496.419 675.987 496.672 675 497.179 674.12C497.712 673.213 498.565 672.493 499.739 671.96C500.939 671.4 502.539 671.12 504.539 671.12H511.779V673.24H504.619C502.592 673.24 501.179 673.6 500.379 674.32C499.605 675.04 499.219 675.933 499.219 677C499.219 678.2 499.685 679.16 500.619 679.88C501.552 680.6 502.859 680.96 504.539 680.96C506.139 680.96 507.512 680.6 508.659 679.88C509.832 679.133 510.685 678.067 511.219 676.68L511.859 678.64C511.325 680.027 510.392 681.133 509.059 681.96C507.752 682.787 506.099 683.2 504.099 683.2ZM532.613 683.2C530.773 683.2 529.119 682.787 527.653 681.96C526.186 681.107 525.026 679.88 524.173 678.28C523.319 676.68 522.893 674.747 522.893 672.48C522.893 670.187 523.319 668.253 524.173 666.68C525.053 665.08 526.226 663.867 527.693 663.04C529.159 662.213 530.799 661.8 532.613 661.8C534.613 661.8 536.399 662.253 537.973 663.16C539.573 664.04 540.826 665.28 541.733 666.88C542.639 668.48 543.093 670.347 543.093 672.48C543.093 674.587 542.639 676.453 541.733 678.08C540.826 679.68 539.573 680.933 537.973 681.84C536.399 682.747 534.613 683.2 532.613 683.2ZM521.773 683V653.32H524.613V668.2L524.213 672.44L524.493 676.68V683H521.773ZM532.413 680.68C533.906 680.68 535.239 680.347 536.413 679.68C537.586 678.987 538.519 678.027 539.213 676.8C539.906 675.547 540.253 674.107 540.253 672.48C540.253 670.827 539.906 669.387 539.213 668.16C538.519 666.933 537.586 665.987 536.413 665.32C535.239 664.627 533.906 664.28 532.413 664.28C530.919 664.28 529.573 664.627 528.372 665.32C527.199 665.987 526.266 666.933 525.573 668.16C524.906 669.387 524.573 670.827 524.573 672.48C524.573 674.107 524.906 675.547 525.573 676.8C526.266 678.027 527.199 678.987 528.372 679.68C529.573 680.347 530.919 680.68 532.413 680.68ZM555.522 683.2C553.549 683.2 552.029 682.667 550.962 681.6C549.895 680.533 549.362 679.027 549.362 677.08V657.36H552.202V676.92C552.202 678.147 552.509 679.093 553.122 679.76C553.762 680.427 554.669 680.76 555.842 680.76C557.095 680.76 558.135 680.4 558.962 679.68L559.962 681.72C559.402 682.227 558.722 682.6 557.922 682.84C557.149 683.08 556.349 683.2 555.522 683.2ZM545.602 664.36V662H558.602V664.36H545.602ZM578.292 683V678.36L578.172 677.6V669.84C578.172 668.053 577.665 666.68 576.652 665.72C575.665 664.76 574.185 664.28 572.212 664.28C570.852 664.28 569.559 664.507 568.332 664.96C567.105 665.413 566.065 666.013 565.212 666.76L563.932 664.64C564.999 663.733 566.279 663.04 567.772 662.56C569.265 662.053 570.839 661.8 572.492 661.8C575.212 661.8 577.305 662.48 578.772 663.84C580.265 665.173 581.012 667.213 581.012 669.96V683H578.292ZM571.052 683.2C569.479 683.2 568.105 682.947 566.932 682.44C565.785 681.907 564.905 681.187 564.292 680.28C563.679 679.347 563.372 678.28 563.372 677.08C563.372 675.987 563.625 675 564.132 674.12C564.665 673.213 565.519 672.493 566.692 671.96C567.892 671.4 569.492 671.12 571.492 671.12H578.732V673.24H571.572C569.545 673.24 568.132 673.6 567.332 674.32C566.559 675.04 566.172 675.933 566.172 677C566.172 678.2 566.639 679.16 567.572 679.88C568.505 680.6 569.812 680.96 571.492 680.96C573.092 680.96 574.465 680.6 575.612 679.88C576.785 679.133 577.639 678.067 578.172 676.68L578.812 678.64C578.279 680.027 577.345 681.133 576.012 681.96C574.705 682.787 573.052 683.2 571.052 683.2ZM589.006 683.2C588.419 683.2 587.912 682.987 587.486 682.56C587.086 682.133 586.886 681.613 586.886 681C586.886 680.36 587.086 679.84 587.486 679.44C587.912 679.04 588.419 678.84 589.006 678.84C589.592 678.84 590.086 679.04 590.486 679.44C590.912 679.84 591.126 680.36 591.126 681C591.126 681.613 590.912 682.133 590.486 682.56C590.086 682.987 589.592 683.2 589.006 683.2ZM605.536 683.2C603.35 683.2 601.43 682.747 599.776 681.84C598.123 680.907 596.83 679.64 595.896 678.04C594.963 676.413 594.496 674.56 594.496 672.48C594.496 670.4 594.936 668.56 595.816 666.96C596.723 665.36 597.95 664.107 599.496 663.2C601.07 662.267 602.83 661.8 604.776 661.8C606.75 661.8 608.496 662.253 610.016 663.16C611.563 664.04 612.776 665.293 613.656 666.92C614.536 668.52 614.976 670.373 614.976 672.48C614.976 672.613 614.963 672.76 614.936 672.92C614.936 673.053 614.936 673.2 614.936 673.36H596.656V671.24H613.416L612.296 672.08C612.296 670.56 611.963 669.213 611.296 668.04C610.656 666.84 609.776 665.907 608.656 665.24C607.536 664.573 606.243 664.24 604.776 664.24C603.336 664.24 602.043 664.573 600.896 665.24C599.75 665.907 598.856 666.84 598.216 668.04C597.576 669.24 597.256 670.613 597.256 672.16V672.6C597.256 674.2 597.603 675.613 598.296 676.84C599.016 678.04 600.003 678.987 601.256 679.68C602.536 680.347 603.99 680.68 605.616 680.68C606.896 680.68 608.083 680.453 609.176 680C610.296 679.547 611.256 678.853 612.056 677.92L613.656 679.76C612.723 680.88 611.55 681.733 610.136 682.32C608.75 682.907 607.216 683.2 605.536 683.2ZM629.437 683.2C627.65 683.2 626.09 682.867 624.757 682.2C623.424 681.533 622.384 680.533 621.637 679.2C620.917 677.867 620.557 676.2 620.557 674.2V662H623.397V673.88C623.397 676.12 623.944 677.813 625.037 678.96C626.157 680.08 627.717 680.64 629.717 680.64C631.184 680.64 632.45 680.347 633.517 679.76C634.61 679.147 635.437 678.267 635.997 677.12C636.584 675.973 636.877 674.6 636.877 673V662H639.717V683H636.997V677.24L637.437 678.28C636.77 679.827 635.73 681.04 634.317 681.92C632.93 682.773 631.304 683.2 629.437 683.2Z" fill="#334255"/>
<path d="M562 306C564.855 307.171 564.855 307.171 567.832 308.824C569.505 309.739 569.505 309.739 571.212 310.673C572.412 311.344 573.612 312.016 574.812 312.687C576.7 313.725 578.589 314.759 580.479 315.792C581.766 316.496 583.052 317.201 584.338 317.908C590.463 321.273 596.661 324.49 602.875 327.687C611.049 331.913 619.173 336.218 627.25 340.625C628.161 341.122 629.072 341.619 630.011 342.132C634.711 344.709 634.711 344.709 637 346C637.858 346.284 638.715 346.567 639.599 346.859C642 349 642 349 642.458 351.198C642.636 354.303 642.641 357.374 642.601 360.484C642.608 362.283 642.608 362.283 642.614 364.118C642.621 367.452 642.605 370.785 642.58 374.119C642.559 377.712 642.566 381.305 642.57 384.898C642.572 391.125 642.557 397.352 642.529 403.58C642.488 412.583 642.475 421.586 642.469 430.59C642.458 445.196 642.424 459.803 642.377 474.409C642.331 488.6 642.296 502.791 642.275 516.982C642.273 517.865 642.272 518.748 642.271 519.658C642.26 526.566 642.25 533.474 642.241 540.382C642.194 574.255 642.093 608.127 642 642C598.44 642 554.88 642 510 642C509.951 623.422 509.902 604.844 509.851 585.703C509.816 573.963 509.78 562.224 509.742 550.484C509.722 544.32 509.702 538.155 509.683 531.99C509.68 531.218 509.678 530.445 509.675 529.649C509.635 517.167 509.603 504.685 509.572 492.203C509.541 479.397 509.503 466.592 509.457 453.787C509.429 445.882 509.407 437.978 509.393 430.073C509.381 424.017 509.359 417.96 509.333 411.904C509.323 409.416 509.318 406.928 509.316 404.44C509.312 401.052 509.297 397.664 509.278 394.276C509.28 393.283 509.282 392.291 509.284 391.269C509.277 390.362 509.269 389.456 509.262 388.521C509.258 387.348 509.258 387.348 509.255 386.151C508.961 383.668 508.344 382.104 507 380C504.762 378.63 502.636 377.48 500.277 376.363C499.617 376.038 498.956 375.713 498.275 375.379C496.168 374.345 494.053 373.328 491.937 372.312C489.82 371.282 487.704 370.249 485.589 369.214C484.273 368.572 482.955 367.933 481.636 367.298C477.108 365.108 477.107 365.108 476 364C475.691 361.234 475.691 361.234 475.562 357.75C475.502 356.61 475.441 355.471 475.379 354.297C476.064 350.658 477.032 349.407 480 347.251C484.225 344.608 488.592 342.26 493 339.937C495.164 338.782 497.328 337.625 499.492 336.469C500.582 335.889 501.673 335.309 502.796 334.711C507.589 332.151 512.358 329.546 517.125 326.937C518.919 325.958 520.713 324.979 522.508 324C526.358 321.898 530.206 319.793 534.055 317.687C535.05 317.144 536.045 316.6 537.07 316.039C538.97 315 540.87 313.96 542.77 312.92C544.451 312.001 546.134 311.087 547.82 310.179C549.642 309.194 551.448 308.18 553.25 307.16C556.497 305.79 558.491 305.726 562 306Z" fill="#0A2D55"/>
<path d="M412.004 358.293C413.09 358.733 413.09 358.733 414.199 359.183C414.979 359.514 415.759 359.846 416.562 360.188C417.839 360.714 417.839 360.714 419.141 361.251C429.538 365.574 439.855 370.094 450.176 374.598C455.454 376.901 460.743 379.179 466.043 381.434C466.69 381.709 467.337 381.985 468.004 382.269C471.103 383.589 474.203 384.906 477.305 386.218C478.404 386.686 479.504 387.154 480.637 387.637C482.086 388.251 482.086 388.251 483.565 388.878C486 390 486 390 489 392C489.385 394.494 489.385 394.494 489.399 397.709C489.411 398.928 489.424 400.147 489.437 401.402C489.435 402.764 489.434 404.125 489.432 405.486C489.441 406.919 489.452 408.351 489.463 409.783C489.491 413.707 489.5 417.631 489.506 421.555C489.515 425.723 489.542 429.892 489.566 434.061C489.61 442.099 489.639 450.138 489.662 458.176C489.688 467.381 489.732 476.586 489.776 485.79C489.928 518.079 490.015 550.368 490.055 582.656C490.057 584.188 490.056 584.188 490.058 585.751C490.079 604.501 490.033 623.25 490 642C450.73 642 411.46 642 371 642C370.979 627.794 370.979 627.794 370.957 613.301C370.937 607.308 370.916 601.315 370.889 595.322C370.846 585.806 370.808 576.29 370.804 566.774C370.801 559.843 370.781 552.913 370.739 545.983C370.718 542.313 370.705 538.644 370.714 534.975C370.723 530.878 370.693 526.782 370.659 522.685C370.668 521.469 370.677 520.252 370.685 518.999C370.684 512.446 370.684 512.446 367.623 506.839C366.757 506.232 365.892 505.625 365 505C364.135 504.305 363.27 503.61 362.379 502.895C361.449 502.208 360.52 501.52 359.562 500.813C358.507 500.031 357.451 499.25 356.363 498.445C352.442 495.582 348.483 492.772 344.523 489.962C339.692 486.524 334.931 482.996 330.187 479.438C329.487 478.913 328.787 478.387 328.065 477.846C323.135 474.135 323.135 474.135 322 473C321.884 470.562 321.832 468.153 321.823 465.714C321.816 464.951 321.81 464.189 321.803 463.403C321.783 460.868 321.772 458.332 321.762 455.797C321.758 454.933 321.753 454.068 321.749 453.177C321.728 448.601 321.714 444.024 321.705 439.447C321.694 434.718 321.659 429.989 321.62 425.26C321.593 421.626 321.585 417.992 321.581 414.358C321.577 412.615 321.565 410.872 321.546 409.129C321.522 406.687 321.523 404.246 321.53 401.804C321.517 401.085 321.504 400.365 321.491 399.625C321.527 396.194 321.918 394.136 323.698 391.178C326.16 388.848 328.178 387.668 331.293 386.356C332.353 385.902 333.412 385.448 334.504 384.98C335.648 384.506 336.793 384.031 337.973 383.543C339.165 383.036 340.357 382.53 341.585 382.008C344.761 380.659 347.943 379.326 351.127 377.998C354.295 376.672 357.457 375.331 360.619 373.99C365.499 371.924 370.384 369.872 375.274 367.83C379.466 366.075 383.642 364.29 387.8 362.456C388.668 362.077 389.535 361.698 390.429 361.308C391.991 360.624 393.55 359.93 395.102 359.224C400.776 356.757 406.088 355.846 412.004 358.293Z" fill="#0A2D55"/>
<path d="M562 306C564.855 307.171 564.855 307.171 567.832 308.824C569.505 309.739 569.505 309.739 571.212 310.673C572.412 311.344 573.612 312.016 574.812 312.687C576.7 313.725 578.589 314.759 580.479 315.792C581.766 316.496 583.052 317.201 584.338 317.908C590.463 321.273 596.661 324.49 602.875 327.687C611.049 331.913 619.173 336.218 627.25 340.625C628.161 341.122 629.072 341.619 630.011 342.132C634.711 344.709 634.711 344.709 637 346C637.858 346.284 638.715 346.567 639.599 346.859C642 349 642 349 642.458 351.198C642.636 354.303 642.641 357.374 642.601 360.484C642.608 362.283 642.608 362.283 642.614 364.118C642.621 367.452 642.605 370.785 642.58 374.119C642.559 377.712 642.566 381.305 642.57 384.898C642.572 391.125 642.557 397.352 642.529 403.58C642.488 412.583 642.475 421.586 642.469 430.59C642.458 445.196 642.424 459.803 642.377 474.409C642.331 488.6 642.296 502.791 642.275 516.982C642.273 517.865 642.272 518.748 642.271 519.658C642.26 526.566 642.25 533.474 642.241 540.382C642.194 574.255 642.093 608.127 642 642C598.44 642 554.88 642 510 642C509.951 623.422 509.902 604.844 509.851 585.703C509.816 573.963 509.78 562.224 509.742 550.484C509.722 544.32 509.702 538.155 509.683 531.99C509.68 531.218 509.678 530.445 509.675 529.649C509.635 517.167 509.603 504.685 509.572 492.203C509.541 479.397 509.503 466.592 509.457 453.787C509.429 445.882 509.407 437.978 509.393 430.073C509.381 424.017 509.359 417.96 509.333 411.904C509.323 409.416 509.318 406.928 509.316 404.44C509.312 401.052 509.297 397.664 509.278 394.276C509.28 393.283 509.282 392.291 509.284 391.269C509.277 390.362 509.269 389.456 509.262 388.521C509.258 387.348 509.258 387.348 509.255 386.151C508.961 383.668 508.344 382.104 507 380C504.762 378.63 502.636 377.48 500.277 376.363C499.617 376.038 498.956 375.713 498.275 375.379C496.168 374.345 494.053 373.328 491.937 372.312C489.82 371.282 487.704 370.249 485.589 369.214C484.273 368.572 482.955 367.933 481.636 367.298C477.108 365.108 477.107 365.108 476 364C475.691 361.234 475.691 361.234 475.562 357.75C475.502 356.61 475.441 355.471 475.379 354.297C476.064 350.658 477.032 349.407 480 347.251C484.225 344.608 488.592 342.26 493 339.937C495.164 338.782 497.328 337.625 499.492 336.469C500.582 335.889 501.673 335.309 502.796 334.711C507.589 332.151 512.358 329.546 517.125 326.937C518.919 325.958 520.713 324.979 522.508 324C526.358 321.898 530.206 319.793 534.055 317.687C535.05 317.144 536.045 316.6 537.07 316.039C538.97 315 540.87 313.96 542.77 312.92C544.451 312.001 546.134 311.087 547.82 310.179C549.642 309.194 551.448 308.18 553.25 307.16C556.497 305.79 558.491 305.726 562 306Z" fill="#0A2D55"/>
<path d="M412.004 358.293C413.09 358.733 413.09 358.733 414.199 359.183C414.979 359.514 415.759 359.846 416.562 360.188C417.839 360.714 417.839 360.714 419.141 361.251C429.538 365.574 439.855 370.094 450.176 374.598C455.454 376.901 460.743 379.179 466.043 381.434C466.69 381.709 467.337 381.985 468.004 382.269C471.103 383.589 474.203 384.906 477.305 386.218C478.404 386.686 479.504 387.154 480.637 387.637C482.086 388.251 482.086 388.251 483.565 388.878C486 390 486 390 489 392C489.385 394.494 489.385 394.494 489.399 397.709C489.411 398.928 489.424 400.147 489.437 401.402C489.435 402.764 489.434 404.125 489.432 405.486C489.441 406.919 489.452 408.351 489.463 409.783C489.491 413.707 489.5 417.631 489.506 421.555C489.515 425.723 489.542 429.892 489.566 434.061C489.61 442.099 489.639 450.138 489.662 458.176C489.688 467.381 489.732 476.586 489.776 485.79C489.928 518.079 490.015 550.368 490.055 582.656C490.057 584.188 490.056 584.188 490.058 585.751C490.079 604.501 490.033 623.25 490 642C450.73 642 411.46 642 371 642C370.979 627.794 370.979 627.794 370.957 613.301C370.937 607.308 370.916 601.315 370.889 595.322C370.846 585.806 370.808 576.29 370.804 566.774C370.801 559.843 370.781 552.913 370.739 545.983C370.718 542.313 370.705 538.644 370.714 534.975C370.723 530.878 370.693 526.782 370.659 522.685C370.668 521.469 370.677 520.252 370.685 518.999C370.684 512.446 370.684 512.446 367.623 506.839C366.757 506.232 365.892 505.625 365 505C364.135 504.305 363.27 503.61 362.379 502.895C361.449 502.208 360.52 501.52 359.562 500.813C358.507 500.031 357.451 499.25 356.363 498.445C352.442 495.582 348.483 492.772 344.523 489.962C339.692 486.524 334.931 482.996 330.187 479.438C329.487 478.913 328.787 478.387 328.065 477.846C323.135 474.135 323.135 474.135 322 473C321.884 470.562 321.832 468.153 321.823 465.714C321.816 464.951 321.81 464.189 321.803 463.403C321.783 460.868 321.772 458.332 321.762 455.797C321.758 454.933 321.753 454.068 321.749 453.177C321.728 448.601 321.714 444.024 321.705 439.447C321.694 434.718 321.659 429.989 321.62 425.26C321.593 421.626 321.585 417.992 321.581 414.358C321.577 412.615 321.565 410.872 321.546 409.129C321.522 406.687 321.523 404.246 321.53 401.804C321.517 401.085 321.504 400.365 321.491 399.625C321.527 396.194 321.918 394.136 323.698 391.178C326.16 388.848 328.178 387.668 331.293 386.356C332.353 385.902 333.412 385.448 334.504 384.98C335.648 384.506 336.793 384.031 337.973 383.543C339.165 383.036 340.357 382.53 341.585 382.008C344.761 380.659 347.943 379.326 351.127 377.998C354.295 376.672 357.457 375.331 360.619 373.99C365.499 371.924 370.384 369.872 375.274 367.83C379.466 366.075 383.642 364.29 387.8 362.456C388.668 362.077 389.535 361.698 390.429 361.308C391.991 360.624 393.55 359.93 395.102 359.224C400.776 356.757 406.088 355.846 412.004 358.293Z" fill="#0A2D55"/>
<path d="M266 456C268.966 457.669 271.617 459.678 274.312 461.75C275.911 462.942 277.51 464.133 279.109 465.324C279.921 465.936 280.732 466.547 281.568 467.177C285.364 470.022 289.213 472.792 293.062 475.562C293.807 476.1 294.551 476.638 295.318 477.192C300.354 480.83 305.419 484.425 310.5 488C319.39 494.256 328.215 500.598 337 507C337.635 507.461 338.269 507.923 338.923 508.398C340.62 509.634 342.311 510.878 344 512.125C345.392 513.15 345.392 513.15 346.812 514.195C349.378 516.312 350.883 517.908 351.246 521.29C351.244 522.194 351.242 523.099 351.24 524.03C351.245 525.589 351.245 525.589 351.249 527.179C351.238 528.888 351.238 528.888 351.227 530.632C351.227 531.832 351.228 533.032 351.228 534.268C351.227 537.559 351.217 540.85 351.203 544.141C351.19 547.581 351.189 551.02 351.187 554.459C351.18 560.972 351.164 567.485 351.144 573.998C351.119 582.14 351.108 590.282 351.098 598.424C351.078 612.949 351.038 627.475 351 642C327.9 642 304.8 642 281 642C281 624.18 281 606.36 281 588C268.46 588 255.92 588 243 588C243 605.82 243 623.64 243 642C219.9 642 196.8 642 173 642C172.679 611.293 172.679 611.293 172.598 596.12C172.554 587.915 172.497 579.711 172.396 571.507C172.317 565.011 172.265 558.515 172.247 552.019C172.237 548.58 172.212 545.143 172.154 541.704C172.089 537.862 172.088 534.021 172.092 530.177C172.063 529.043 172.034 527.909 172.005 526.74C172.083 519.188 172.083 519.188 174.693 515.805C176.714 514.007 178.747 512.494 181 511C182.412 509.945 183.821 508.887 185.227 507.824C186.69 506.774 188.156 505.729 189.625 504.688C190.411 504.125 191.198 503.562 192.008 502.982C194.336 501.318 196.667 499.658 199 498C200.216 497.132 201.433 496.263 202.648 495.395C204.325 494.197 206.001 492.999 207.679 491.803C212.382 488.448 217.068 485.071 221.75 481.688C222.502 481.144 223.254 480.6 224.029 480.041C228.744 476.633 233.456 473.222 238.168 469.81C240.437 468.17 242.713 466.538 244.988 464.906C247.398 463.174 249.758 461.413 252.105 459.594C252.957 458.944 253.81 458.294 254.687 457.625C255.372 457.081 256.056 456.537 256.762 455.977C260.26 454.45 262.339 455.001 266 456Z" fill="#0A2D55"/>
<path d="M509 384C509.33 384 509.66 384 510 384C510 469.14 510 554.28 510 642C527.49 642 544.98 642 563 642C563 642.33 563 642.66 563 643C545.18 643 527.36 643 509 643C509 557.53 509 472.06 509 384Z" fill="#0A2D55"/>
<path d="M642 351C642.33 351 642.66 351 643 351C643 447.03 643 543.06 643 642C642.67 642 642.34 642 642 642C642 545.97 642 449.94 642 351Z" fill="#0A2D55"/>
<path d="M490 396C490.33 396 490.66 396 491 396C491 448.47 491 500.94 491 555C490.67 555 490.34 555 490 555C490 502.53 490 450.06 490 396Z" fill="#0A2D55"/>
<path d="M643 497C643.33 497 643.66 497 644 497C644 545.18 644 593.36 644 643C643.67 643 643.34 643 643 643C643 594.82 643 546.64 643 497Z" fill="#0A2D55"/>
<path d="M643 353C643.33 353 643.66 353 644 353C644 400.52 644 448.04 644 497C643.67 497 643.34 497 643 497C643 449.48 643 401.96 643 353Z" fill="#0A2D55"/>
<path d="M370 628C370.33 628 370.66 628 371 628C371 632.62 371 637.24 371 642C410.27 642 449.54 642 490 642C490 642.33 490 642.66 490 643C450.4 643 410.8 643 370 643C370 638.05 370 633.1 370 628Z" fill="#0A2D55"/>
<path d="M243 588C243.33 588 243.66 588 244 588C244 606.15 244 624.3 244 643C220.24 643 196.48 643 172 643C172 642.67 172 642.34 172 642C195.43 642 218.86 642 243 642C243 624.18 243 606.36 243 588Z" fill="#0A2D55"/>
<path d="M172 519C172.33 519 172.66 519 173 519C173 559.59 173 600.18 173 642C172.67 642 172.34 642 172 642C172 601.41 172 560.82 172 519Z" fill="#0A2D55"/>
<path d="M351 521C351.33 521 351.66 521 352 521C352 561.26 352 601.52 352 643C351.67 643 351.34 643 351 643C351 602.74 351 562.48 351 521Z" fill="#0A2D55"/>
<path d="M171 521C171.33 521 171.66 521 172 521C172 561.26 172 601.52 172 643C171.67 643 171.34 643 171 643C171 602.74 171 562.48 171 521Z" fill="#0A2D55"/>
<path d="M370 510C370.33 510 370.66 510 371 510C371 548.94 371 587.88 371 628C370.67 628 370.34 628 370 628C370 589.06 370 550.12 370 510Z" fill="#0A2D55"/>
<path d="M244 588C256.21 588 268.42 588 281 588C281 606.15 281 624.3 281 643C280.67 643 280.34 643 280 643C280 625.18 280 607.36 280 589C268.12 589 256.24 589 244 589C244 588.67 244 588.34 244 588Z" fill="#0A2D55"/>
<path d="M490 555C490.33 555 490.66 555 491 555C491 584.04 491 613.08 491 643C490.67 643 490.34 643 490 643C490 613.96 490 584.92 490 555Z" fill="#0A2D55"/>
<path d="M324 390C324.66 390.33 325.32 390.66 326 391C325.271 391.51 325.271 391.51 324.527 392.031C322.253 394.964 322.56 397.938 322.568 401.501C322.557 402.262 322.547 403.023 322.537 403.807C322.506 406.324 322.497 408.839 322.488 411.355C322.471 413.1 322.453 414.844 322.434 416.589C322.386 421.181 322.356 425.772 322.33 430.364C322.301 435.049 322.254 439.735 322.209 444.42C322.123 453.613 322.055 462.806 322 472C321.67 472 321.34 472 321 472C320.93 461.752 320.877 451.503 320.844 441.254C320.829 436.496 320.808 431.737 320.774 426.979C320.741 422.388 320.723 417.798 320.715 413.207C320.71 411.454 320.699 409.701 320.683 407.948C320.661 405.496 320.658 403.045 320.659 400.593C320.649 399.865 320.638 399.137 320.627 398.387C320.657 393.445 320.657 393.445 322.521 391.025C323.009 390.687 323.497 390.349 324 390Z" fill="#0A2D55"/>
<path d="M489 394C489.33 394 489.66 394 490 394C490 421.06 490 448.12 490 476C489.67 476 489.34 476 489 476C489 448.94 489 421.88 489 394Z" fill="#0A2D55"/>
<path d="M563 642C589.4 642 615.8 642 643 642C643 642.33 643 642.66 643 643C616.6 643 590.2 643 563 643C563 642.67 563 642.34 563 642Z" fill="#0A2D55"/>
<path d="M489 476C489.33 476 489.66 476 490 476C490 501.08 490 526.16 490 552C489.67 552 489.34 552 489 552C489 526.92 489 501.84 489 476Z" fill="#0A2D55"/>
<path d="M320 395C320.33 395 320.66 395 321 395C321 420.08 321 445.16 321 471C320.67 471 320.34 471 320 471C320 445.92 320 420.84 320 395Z" fill="#0A2D55"/>
<path d="M281 642C304.1 642 327.2 642 351 642C351 642.33 351 642.66 351 643C327.9 643 304.8 643 281 643C281 642.67 281 642.34 281 642Z" fill="#0A2D55"/>
<path d="M266 456C268.966 457.669 271.617 459.678 274.312 461.75C275.911 462.942 277.51 464.133 279.109 465.324C279.921 465.936 280.732 466.547 281.568 467.177C285.364 470.022 289.213 472.792 293.062 475.562C293.807 476.1 294.551 476.638 295.318 477.192C300.354 480.83 305.419 484.425 310.5 488C319.39 494.256 328.215 500.598 337 507C337.635 507.461 338.269 507.923 338.923 508.398C340.62 509.634 342.311 510.878 344 512.125C345.392 513.15 345.392 513.15 346.812 514.195C349.378 516.312 350.883 517.908 351.246 521.29C351.244 522.194 351.242 523.099 351.24 524.03C351.245 525.589 351.245 525.589 351.249 527.179C351.238 528.888 351.238 528.888 351.227 530.632C351.227 531.832 351.228 533.032 351.228 534.268C351.227 537.559 351.217 540.85 351.203 544.141C351.19 547.581 351.189 551.02 351.187 554.459C351.18 560.972 351.164 567.485 351.144 573.998C351.119 582.14 351.108 590.282 351.098 598.424C351.078 612.949 351.038 627.475 351 642C327.9 642 304.8 642 281 642C281 624.18 281 606.36 281 588C268.46 588 255.92 588 243 588C243 605.82 243 623.64 243 642C219.9 642 196.8 642 173 642C172.679 611.293 172.679 611.293 172.598 596.12C172.554 587.915 172.497 579.711 172.396 571.507C172.317 565.011 172.265 558.515 172.247 552.019C172.237 548.58 172.212 545.143 172.154 541.704C172.089 537.862 172.088 534.021 172.092 530.177C172.063 529.043 172.034 527.909 172.005 526.74C172.083 519.188 172.083 519.188 174.693 515.805C176.714 514.007 178.747 512.494 181 511C182.412 509.945 183.821 508.887 185.227 507.824C186.69 506.774 188.156 505.729 189.625 504.688C190.411 504.125 191.198 503.562 192.008 502.982C194.336 501.318 196.667 499.658 199 498C200.216 497.132 201.433 496.263 202.648 495.395C204.325 494.197 206.001 492.999 207.679 491.803C212.382 488.448 217.068 485.071 221.75 481.688C222.502 481.144 223.254 480.6 224.029 480.041C228.744 476.633 233.456 473.222 238.168 469.81C240.437 468.17 242.713 466.538 244.988 464.906C247.398 463.174 249.758 461.413 252.105 459.594C252.957 458.944 253.81 458.294 254.687 457.625C255.372 457.081 256.056 456.537 256.762 455.977C260.26 454.45 262.339 455.001 266 456Z" fill="#0A2D55"/>
<path d="M509 384C509.33 384 509.66 384 510 384C510 469.14 510 554.28 510 642C527.49 642 544.98 642 563 642C563 642.33 563 642.66 563 643C545.18 643 527.36 643 509 643C509 557.53 509 472.06 509 384Z" fill="#0A2D55"/>
<path d="M642 351C642.33 351 642.66 351 643 351C643 447.03 643 543.06 643 642C642.67 642 642.34 642 642 642C642 545.97 642 449.94 642 351Z" fill="#0A2D55"/>
<path d="M490 396C490.33 396 490.66 396 491 396C491 448.47 491 500.94 491 555C490.67 555 490.34 555 490 555C490 502.53 490 450.06 490 396Z" fill="#0A2D55"/>
<path d="M643 497C643.33 497 643.66 497 644 497C644 545.18 644 593.36 644 643C643.67 643 643.34 643 643 643C643 594.82 643 546.64 643 497Z" fill="#0A2D55"/>
<path d="M643 353C643.33 353 643.66 353 644 353C644 400.52 644 448.04 644 497C643.67 497 643.34 497 643 497C643 449.48 643 401.96 643 353Z" fill="#0A2D55"/>
<path d="M370 628C370.33 628 370.66 628 371 628C371 632.62 371 637.24 371 642C410.27 642 449.54 642 490 642C490 642.33 490 642.66 490 643C450.4 643 410.8 643 370 643C370 638.05 370 633.1 370 628Z" fill="#0A2D55"/>
<path d="M243 588C243.33 588 243.66 588 244 588C244 606.15 244 624.3 244 643C220.24 643 196.48 643 172 643C172 642.67 172 642.34 172 642C195.43 642 218.86 642 243 642C243 624.18 243 606.36 243 588Z" fill="#0A2D55"/>
<path d="M172 519C172.33 519 172.66 519 173 519C173 559.59 173 600.18 173 642C172.67 642 172.34 642 172 642C172 601.41 172 560.82 172 519Z" fill="#0A2D55"/>
<path d="M351 521C351.33 521 351.66 521 352 521C352 561.26 352 601.52 352 643C351.67 643 351.34 643 351 643C351 602.74 351 562.48 351 521Z" fill="#0A2D55"/>
<path d="M171 521C171.33 521 171.66 521 172 521C172 561.26 172 601.52 172 643C171.67 643 171.34 643 171 643C171 602.74 171 562.48 171 521Z" fill="#0A2D55"/>
<path d="M370 510C370.33 510 370.66 510 371 510C371 548.94 371 587.88 371 628C370.67 628 370.34 628 370 628C370 589.06 370 550.12 370 510Z" fill="#0A2D55"/>
<path d="M244 588C256.21 588 268.42 588 281 588C281 606.15 281 624.3 281 643C280.67 643 280.34 643 280 643C280 625.18 280 607.36 280 589C268.12 589 256.24 589 244 589C244 588.67 244 588.34 244 588Z" fill="#0A2D55"/>
<path d="M490 555C490.33 555 490.66 555 491 555C491 584.04 491 613.08 491 643C490.67 643 490.34 643 490 643C490 613.96 490 584.92 490 555Z" fill="#0A2D55"/>
<path d="M324 390C324.66 390.33 325.32 390.66 326 391C325.271 391.51 325.271 391.51 324.527 392.031C322.253 394.964 322.56 397.938 322.568 401.501C322.557 402.262 322.547 403.023 322.537 403.807C322.506 406.324 322.497 408.839 322.488 411.355C322.471 413.1 322.453 414.844 322.434 416.589C322.386 421.181 322.356 425.772 322.33 430.364C322.301 435.049 322.254 439.735 322.209 444.42C322.123 453.613 322.055 462.806 322 472C321.67 472 321.34 472 321 472C320.93 461.752 320.877 451.503 320.844 441.254C320.829 436.496 320.808 431.737 320.774 426.979C320.741 422.388 320.723 417.798 320.715 413.207C320.71 411.454 320.699 409.701 320.683 407.948C320.661 405.496 320.658 403.045 320.659 400.593C320.649 399.865 320.638 399.137 320.627 398.387C320.657 393.445 320.657 393.445 322.521 391.025C323.009 390.687 323.497 390.349 324 390Z" fill="#0A2D55"/>
<path d="M489 394C489.33 394 489.66 394 490 394C490 421.06 490 448.12 490 476C489.67 476 489.34 476 489 476C489 448.94 489 421.88 489 394Z" fill="#0A2D55"/>
<path d="M489 476C489.33 476 489.66 476 490 476C490 501.08 490 526.16 490 552C489.67 552 489.34 552 489 552C489 526.92 489 501.84 489 476Z" fill="#0A2D55"/>
<path d="M320 395C320.33 395 320.66 395 321 395C321 420.08 321 445.16 321 471C320.67 471 320.34 471 320 471C320 445.92 320 420.84 320 395Z" fill="#0A2D55"/>
<path d="M281 642C304.1 642 327.2 642 351 642C351 642.33 351 642.66 351 643C327.9 643 304.8 643 281 643C281 642.67 281 642.34 281 642Z" fill="#0A2D55"/>
<path d="M551.39 232.549L487.069 268.555C485.174 269.616 484 271.618 484 273.79V316.606C484 321.225 489.001 324.112 493.001 321.802L551.324 288.117C553.09 287.097 555.253 287.044 557.067 287.976L624.257 322.507C628.25 324.559 633 321.66 633 317.17V273.987C633 271.711 631.712 269.631 629.675 268.617L556.996 232.414C555.22 231.529 553.121 231.58 551.39 232.549Z" fill="#6683A0"/>
<rect x="684" y="638" width="200" height="6" fill="#6683A0"/>
<rect x="684" y="638" width="200" height="6" stroke="black"/>
</svg>
