<svg width="1844" height="440" viewBox="0 220 1844 440" fill="none" xmlns="http://www.w3.org/2000/svg">
<path d="M693.844 541V388.273H735.307V447.932H790.193V388.273H831.656V541H790.193V481.341H735.307V541H693.844ZM884.717 541H839.973L890.385 388.273H947.061L997.473 541H952.728L919.319 430.332H918.126L884.717 541ZM876.365 480.744H960.484V511.767H876.365V480.744ZM1005.88 541V388.273H1072.1C1083.74 388.273 1093.51 389.839 1101.41 392.971C1109.37 396.103 1115.36 400.528 1119.38 406.245C1123.46 411.962 1125.5 418.699 1125.5 426.455C1125.5 432.072 1124.26 437.193 1121.77 441.817C1119.33 446.44 1115.9 450.318 1111.48 453.45C1107.05 456.533 1101.88 458.67 1095.97 459.864V461.355C1102.53 461.604 1108.5 463.269 1113.87 466.352C1119.23 469.384 1123.51 473.585 1126.69 478.955C1129.87 484.274 1131.46 490.538 1131.46 497.747C1131.46 506.099 1129.28 513.532 1124.9 520.045C1120.58 526.558 1114.41 531.678 1106.41 535.407C1098.4 539.136 1088.86 541 1077.77 541H1005.88ZM1047.35 507.889H1066.73C1073.69 507.889 1078.92 506.597 1082.4 504.011C1085.88 501.376 1087.62 497.499 1087.62 492.378C1087.62 488.798 1086.8 485.766 1085.15 483.28C1083.51 480.794 1081.18 478.905 1078.14 477.612C1075.16 476.32 1071.56 475.673 1067.33 475.673H1047.35V507.889ZM1047.35 450.02H1064.35C1067.98 450.02 1071.18 449.448 1073.97 448.305C1076.75 447.161 1078.92 445.521 1080.46 443.383C1082.05 441.195 1082.84 438.536 1082.84 435.403C1082.84 430.68 1081.15 427.076 1077.77 424.59C1074.39 422.055 1070.12 420.787 1064.94 420.787H1047.35V450.02ZM1135.68 421.682V388.273H1268.42V421.682H1222.48V541H1181.62V421.682H1135.68ZM1298.12 541H1253.38L1303.79 388.273H1360.47L1410.88 541H1366.13L1332.72 430.332H1331.53L1298.12 541ZM1289.77 480.744H1373.89V511.767H1289.77V480.744Z" fill="#F9FAFC"/>
<path d="M562 306C564.855 307.171 564.855 307.171 567.832 308.824C569.505 309.739 569.505 309.739 571.212 310.673C572.412 311.344 573.612 312.016 574.812 312.687C576.7 313.725 578.589 314.759 580.479 315.792C581.766 316.496 583.052 317.201 584.338 317.908C590.463 321.273 596.661 324.49 602.875 327.687C611.049 331.913 619.173 336.218 627.25 340.625C628.161 341.122 629.072 341.619 630.011 342.132C634.711 344.709 634.711 344.709 637 346C637.858 346.284 638.715 346.567 639.599 346.859C642 349 642 349 642.458 351.198C642.636 354.303 642.641 357.374 642.601 360.484C642.608 362.283 642.608 362.283 642.614 364.118C642.621 367.452 642.605 370.785 642.58 374.119C642.559 377.712 642.566 381.305 642.57 384.898C642.572 391.125 642.557 397.352 642.529 403.58C642.488 412.583 642.475 421.586 642.469 430.59C642.458 445.196 642.424 459.803 642.377 474.409C642.331 488.6 642.296 502.791 642.275 516.982C642.273 517.865 642.272 518.748 642.271 519.658C642.26 526.566 642.25 533.474 642.241 540.382C642.194 574.255 642.093 608.127 642 642C598.44 642 554.88 642 510 642C509.951 623.422 509.902 604.844 509.851 585.703C509.816 573.963 509.78 562.224 509.742 550.484C509.722 544.32 509.702 538.155 509.683 531.99C509.68 531.217 509.678 530.445 509.675 529.649C509.635 517.167 509.603 504.685 509.572 492.203C509.541 479.397 509.503 466.592 509.457 453.787C509.429 445.882 509.407 437.978 509.393 430.073C509.381 424.017 509.359 417.96 509.333 411.904C509.323 409.416 509.318 406.928 509.316 404.44C509.312 401.052 509.297 397.664 509.278 394.276C509.28 393.283 509.282 392.291 509.284 391.269C509.277 390.362 509.269 389.456 509.262 388.521C509.258 387.348 509.258 387.348 509.255 386.151C508.961 383.668 508.344 382.104 507 380C504.762 378.63 502.636 377.48 500.277 376.363C499.617 376.038 498.956 375.713 498.275 375.379C496.168 374.345 494.053 373.328 491.937 372.312C489.82 371.282 487.704 370.249 485.589 369.214C484.273 368.572 482.955 367.933 481.636 367.298C477.108 365.108 477.107 365.108 476 364C475.691 361.234 475.691 361.234 475.562 357.75C475.502 356.61 475.441 355.471 475.379 354.297C476.064 350.658 477.032 349.407 480 347.251C484.225 344.608 488.592 342.26 493 339.937C495.164 338.782 497.328 337.625 499.492 336.469C500.582 335.889 501.673 335.309 502.796 334.711C507.589 332.151 512.358 329.546 517.125 326.937C518.919 325.958 520.713 324.979 522.508 324C526.358 321.898 530.206 319.793 534.055 317.687C535.05 317.144 536.045 316.6 537.07 316.039C538.97 315 540.87 313.96 542.77 312.92C544.451 312.001 546.134 311.087 547.82 310.179C549.642 309.194 551.448 308.18 553.25 307.16C556.497 305.79 558.491 305.726 562 306Z" fill="#F9FAFC"/>
<path d="M412.004 358.293C413.09 358.733 413.09 358.733 414.199 359.183C414.979 359.514 415.759 359.846 416.562 360.188C417.839 360.714 417.839 360.714 419.141 361.251C429.538 365.574 439.855 370.094 450.176 374.598C455.454 376.901 460.743 379.179 466.043 381.434C466.69 381.709 467.337 381.985 468.004 382.269C471.103 383.589 474.203 384.906 477.305 386.218C478.404 386.686 479.504 387.154 480.637 387.637C482.086 388.251 482.086 388.251 483.565 388.878C486 390 486 390 489 392C489.385 394.494 489.385 394.494 489.399 397.709C489.411 398.928 489.424 400.147 489.437 401.402C489.435 402.764 489.434 404.125 489.432 405.486C489.441 406.919 489.452 408.351 489.463 409.783C489.491 413.707 489.5 417.631 489.506 421.555C489.515 425.723 489.542 429.892 489.566 434.061C489.61 442.099 489.639 450.138 489.662 458.176C489.688 467.381 489.732 476.586 489.776 485.79C489.928 518.079 490.015 550.368 490.055 582.656C490.056 584.188 490.056 584.188 490.058 585.751C490.079 604.501 490.033 623.25 490 642C450.73 642 411.46 642 371 642C370.979 627.794 370.979 627.794 370.957 613.301C370.937 607.308 370.916 601.315 370.889 595.322C370.846 585.806 370.808 576.29 370.804 566.774C370.801 559.843 370.781 552.913 370.739 545.983C370.718 542.313 370.705 538.644 370.714 534.975C370.723 530.878 370.693 526.782 370.659 522.685C370.668 521.469 370.677 520.252 370.685 518.999C370.684 512.446 370.684 512.446 367.623 506.839C366.757 506.232 365.892 505.625 365 505C364.135 504.305 363.27 503.61 362.379 502.895C361.449 502.208 360.52 501.52 359.562 500.813C358.507 500.031 357.451 499.25 356.363 498.445C352.442 495.582 348.483 492.772 344.523 489.962C339.692 486.524 334.931 482.996 330.187 479.438C329.487 478.913 328.787 478.387 328.065 477.846C323.135 474.135 323.135 474.135 322 473C321.884 470.562 321.832 468.153 321.823 465.714C321.816 464.951 321.81 464.189 321.803 463.403C321.783 460.868 321.772 458.332 321.762 455.797C321.758 454.933 321.753 454.068 321.749 453.177C321.728 448.601 321.714 444.024 321.705 439.447C321.694 434.718 321.659 429.989 321.62 425.26C321.593 421.626 321.585 417.992 321.581 414.358C321.577 412.615 321.565 410.872 321.546 409.129C321.522 406.687 321.523 404.246 321.53 401.804C321.517 401.085 321.504 400.365 321.491 399.625C321.527 396.194 321.918 394.136 323.698 391.178C326.16 388.848 328.178 387.668 331.293 386.356C332.353 385.902 333.412 385.448 334.504 384.98C335.648 384.506 336.793 384.031 337.973 383.543C339.165 383.036 340.357 382.53 341.585 382.008C344.761 380.659 347.943 379.326 351.127 377.998C354.295 376.672 357.457 375.331 360.619 373.99C365.499 371.924 370.384 369.872 375.274 367.83C379.466 366.075 383.642 364.29 387.8 362.456C388.668 362.077 389.535 361.698 390.429 361.308C391.991 360.624 393.55 359.93 395.102 359.224C400.776 356.757 406.088 355.846 412.004 358.293Z" fill="#F9FAFC"/>
<path d="M562 306C564.855 307.171 564.855 307.171 567.832 308.824C569.505 309.739 569.505 309.739 571.212 310.673C572.412 311.344 573.612 312.016 574.812 312.687C576.7 313.725 578.589 314.759 580.479 315.792C581.766 316.496 583.052 317.201 584.338 317.908C590.463 321.273 596.661 324.49 602.875 327.687C611.049 331.913 619.173 336.218 627.25 340.625C628.161 341.122 629.072 341.619 630.011 342.132C634.711 344.709 634.711 344.709 637 346C637.858 346.284 638.715 346.567 639.599 346.859C642 349 642 349 642.458 351.198C642.636 354.303 642.641 357.374 642.601 360.484C642.608 362.283 642.608 362.283 642.614 364.118C642.621 367.452 642.605 370.785 642.58 374.119C642.559 377.712 642.566 381.305 642.57 384.898C642.572 391.125 642.557 397.352 642.529 403.58C642.488 412.583 642.475 421.586 642.469 430.59C642.458 445.196 642.424 459.803 642.377 474.409C642.331 488.6 642.296 502.791 642.275 516.982C642.273 517.865 642.272 518.748 642.271 519.658C642.26 526.566 642.25 533.474 642.241 540.382C642.194 574.255 642.093 608.127 642 642C598.44 642 554.88 642 510 642C509.951 623.422 509.902 604.844 509.851 585.703C509.816 573.963 509.78 562.224 509.742 550.484C509.722 544.32 509.702 538.155 509.683 531.99C509.68 531.217 509.678 530.445 509.675 529.649C509.635 517.167 509.603 504.685 509.572 492.203C509.541 479.397 509.503 466.592 509.457 453.787C509.429 445.882 509.407 437.978 509.393 430.073C509.381 424.017 509.359 417.96 509.333 411.904C509.323 409.416 509.318 406.928 509.316 404.44C509.312 401.052 509.297 397.664 509.278 394.276C509.28 393.283 509.282 392.291 509.284 391.269C509.277 390.362 509.269 389.456 509.262 388.521C509.258 387.348 509.258 387.348 509.255 386.151C508.961 383.668 508.344 382.104 507 380C504.762 378.63 502.636 377.48 500.277 376.363C499.617 376.038 498.956 375.713 498.275 375.379C496.168 374.345 494.053 373.328 491.937 372.312C489.82 371.282 487.704 370.249 485.589 369.214C484.273 368.572 482.955 367.933 481.636 367.298C477.108 365.108 477.107 365.108 476 364C475.691 361.234 475.691 361.234 475.562 357.75C475.502 356.61 475.441 355.471 475.379 354.297C476.064 350.658 477.032 349.407 480 347.251C484.225 344.608 488.592 342.26 493 339.937C495.164 338.782 497.328 337.625 499.492 336.469C500.582 335.889 501.673 335.309 502.796 334.711C507.589 332.151 512.358 329.546 517.125 326.937C518.919 325.958 520.713 324.979 522.508 324C526.358 321.898 530.206 319.793 534.055 317.687C535.05 317.144 536.045 316.6 537.07 316.039C538.97 315 540.87 313.96 542.77 312.92C544.451 312.001 546.134 311.087 547.82 310.179C549.642 309.194 551.448 308.18 553.25 307.16C556.497 305.79 558.491 305.726 562 306Z" fill="#F9FAFC"/>
<path d="M412.004 358.293C413.09 358.733 413.09 358.733 414.199 359.183C414.979 359.514 415.759 359.846 416.562 360.188C417.839 360.714 417.839 360.714 419.141 361.251C429.538 365.574 439.855 370.094 450.176 374.598C455.454 376.901 460.743 379.179 466.043 381.434C466.69 381.709 467.337 381.985 468.004 382.269C471.103 383.589 474.203 384.906 477.305 386.218C478.404 386.686 479.504 387.154 480.637 387.637C482.086 388.251 482.086 388.251 483.565 388.878C486 390 486 390 489 392C489.385 394.494 489.385 394.494 489.399 397.709C489.411 398.928 489.424 400.147 489.437 401.402C489.435 402.764 489.434 404.125 489.432 405.486C489.441 406.919 489.452 408.351 489.463 409.783C489.491 413.707 489.5 417.631 489.506 421.555C489.515 425.723 489.542 429.892 489.566 434.061C489.61 442.099 489.639 450.138 489.662 458.176C489.688 467.381 489.732 476.586 489.776 485.79C489.928 518.079 490.015 550.368 490.055 582.656C490.056 584.188 490.056 584.188 490.058 585.751C490.079 604.501 490.033 623.25 490 642C450.73 642 411.46 642 371 642C370.979 627.794 370.979 627.794 370.957 613.301C370.937 607.308 370.916 601.315 370.889 595.322C370.846 585.806 370.808 576.29 370.804 566.774C370.801 559.843 370.781 552.913 370.739 545.983C370.718 542.313 370.705 538.644 370.714 534.975C370.723 530.878 370.693 526.782 370.659 522.685C370.668 521.469 370.677 520.252 370.685 518.999C370.684 512.446 370.684 512.446 367.623 506.839C366.757 506.232 365.892 505.625 365 505C364.135 504.305 363.27 503.61 362.379 502.895C361.449 502.208 360.52 501.52 359.562 500.813C358.507 500.031 357.451 499.25 356.363 498.445C352.442 495.582 348.483 492.772 344.523 489.962C339.692 486.524 334.931 482.996 330.187 479.438C329.487 478.913 328.787 478.387 328.065 477.846C323.135 474.135 323.135 474.135 322 473C321.884 470.562 321.832 468.153 321.823 465.714C321.816 464.951 321.81 464.189 321.803 463.403C321.783 460.868 321.772 458.332 321.762 455.797C321.758 454.933 321.753 454.068 321.749 453.177C321.728 448.601 321.714 444.024 321.705 439.447C321.694 434.718 321.659 429.989 321.62 425.26C321.593 421.626 321.585 417.992 321.581 414.358C321.577 412.615 321.565 410.872 321.546 409.129C321.522 406.687 321.523 404.246 321.53 401.804C321.517 401.085 321.504 400.365 321.491 399.625C321.527 396.194 321.918 394.136 323.698 391.178C326.16 388.848 328.178 387.668 331.293 386.356C332.353 385.902 333.412 385.448 334.504 384.98C335.648 384.506 336.793 384.031 337.973 383.543C339.165 383.036 340.357 382.53 341.585 382.008C344.761 380.659 347.943 379.326 351.127 377.998C354.295 376.672 357.457 375.331 360.619 373.99C365.499 371.924 370.384 369.872 375.274 367.83C379.466 366.075 383.642 364.29 387.8 362.456C388.668 362.077 389.535 361.698 390.429 361.308C391.991 360.624 393.55 359.93 395.102 359.224C400.776 356.757 406.088 355.846 412.004 358.293Z" fill="#F9FAFC"/>
<path d="M266 456C268.966 457.669 271.617 459.678 274.312 461.75C275.911 462.942 277.51 464.133 279.109 465.324C279.921 465.936 280.732 466.547 281.568 467.177C285.364 470.022 289.213 472.792 293.062 475.562C293.807 476.1 294.551 476.638 295.318 477.192C300.354 480.83 305.419 484.425 310.5 488C319.39 494.256 328.215 500.598 337 507C337.635 507.461 338.269 507.923 338.923 508.398C340.62 509.634 342.311 510.878 344 512.125C345.392 513.15 345.392 513.15 346.812 514.195C349.378 516.312 350.883 517.908 351.246 521.29C351.244 522.194 351.242 523.099 351.24 524.03C351.245 525.589 351.245 525.589 351.249 527.179C351.238 528.888 351.238 528.888 351.227 530.632C351.227 531.832 351.228 533.032 351.228 534.268C351.227 537.559 351.217 540.85 351.203 544.141C351.19 547.581 351.189 551.02 351.187 554.459C351.18 560.972 351.164 567.485 351.144 573.998C351.119 582.14 351.108 590.282 351.098 598.424C351.078 612.949 351.038 627.475 351 642C327.9 642 304.8 642 281 642C281 624.18 281 606.36 281 588C268.46 588 255.92 588 243 588C243 605.82 243 623.64 243 642C219.9 642 196.8 642 173 642C172.679 611.293 172.679 611.293 172.598 596.12C172.554 587.915 172.497 579.711 172.396 571.507C172.317 565.011 172.265 558.515 172.247 552.019C172.237 548.58 172.212 545.143 172.154 541.704C172.089 537.862 172.088 534.021 172.092 530.177C172.063 529.043 172.034 527.909 172.005 526.74C172.083 519.188 172.083 519.188 174.693 515.805C176.714 514.007 178.747 512.494 181 511C182.412 509.945 183.821 508.887 185.227 507.824C186.69 506.774 188.156 505.729 189.625 504.688C190.411 504.125 191.198 503.562 192.008 502.982C194.336 501.318 196.667 499.658 199 498C200.216 497.132 201.433 496.263 202.648 495.395C204.325 494.197 206.001 492.999 207.679 491.803C212.382 488.448 217.068 485.071 221.75 481.688C222.502 481.144 223.254 480.6 224.029 480.041C228.744 476.633 233.456 473.222 238.168 469.81C240.437 468.17 242.713 466.538 244.988 464.906C247.398 463.174 249.758 461.413 252.105 459.594C252.957 458.944 253.81 458.294 254.687 457.625C255.372 457.081 256.056 456.537 256.762 455.977C260.26 454.45 262.339 455.001 266 456Z" fill="#F9FAFC"/>
<path d="M509 384C509.33 384 509.66 384 510 384C510 469.14 510 554.28 510 642C527.49 642 544.98 642 563 642C563 642.33 563 642.66 563 643C545.18 643 527.36 643 509 643C509 557.53 509 472.06 509 384Z" fill="#F9FAFC"/>
<path d="M642 351C642.33 351 642.66 351 643 351C643 447.03 643 543.06 643 642C642.67 642 642.34 642 642 642C642 545.97 642 449.94 642 351Z" fill="#F9FAFC"/>
<path d="M490 396C490.33 396 490.66 396 491 396C491 448.47 491 500.94 491 555C490.67 555 490.34 555 490 555C490 502.53 490 450.06 490 396Z" fill="#F9FAFC"/>
<path d="M643 497C643.33 497 643.66 497 644 497C644 545.18 644 593.36 644 643C643.67 643 643.34 643 643 643C643 594.82 643 546.64 643 497Z" fill="#F9FAFC"/>
<path d="M643 353C643.33 353 643.66 353 644 353C644 400.52 644 448.04 644 497C643.67 497 643.34 497 643 497C643 449.48 643 401.96 643 353Z" fill="#F9FAFC"/>
<path d="M370 628C370.33 628 370.66 628 371 628C371 632.62 371 637.24 371 642C410.27 642 449.54 642 490 642C490 642.33 490 642.66 490 643C450.4 643 410.8 643 370 643C370 638.05 370 633.1 370 628Z" fill="#F9FAFC"/>
<path d="M243 588C243.33 588 243.66 588 244 588C244 606.15 244 624.3 244 643C220.24 643 196.48 643 172 643C172 642.67 172 642.34 172 642C195.43 642 218.86 642 243 642C243 624.18 243 606.36 243 588Z" fill="#F9FAFC"/>
<path d="M172 519C172.33 519 172.66 519 173 519C173 559.59 173 600.18 173 642C172.67 642 172.34 642 172 642C172 601.41 172 560.82 172 519Z" fill="#F9FAFC"/>
<path d="M351 521C351.33 521 351.66 521 352 521C352 561.26 352 601.52 352 643C351.67 643 351.34 643 351 643C351 602.74 351 562.48 351 521Z" fill="#F9FAFC"/>
<path d="M171 521C171.33 521 171.66 521 172 521C172 561.26 172 601.52 172 643C171.67 643 171.34 643 171 643C171 602.74 171 562.48 171 521Z" fill="#F9FAFC"/>
<path d="M370 510C370.33 510 370.66 510 371 510C371 548.94 371 587.88 371 628C370.67 628 370.34 628 370 628C370 589.06 370 550.12 370 510Z" fill="#F9FAFC"/>
<path d="M244 588C256.21 588 268.42 588 281 588C281 606.15 281 624.3 281 643C280.67 643 280.34 643 280 643C280 625.18 280 607.36 280 589C268.12 589 256.24 589 244 589C244 588.67 244 588.34 244 588Z" fill="#F9FAFC"/>
<path d="M490 555C490.33 555 490.66 555 491 555C491 584.04 491 613.08 491 643C490.67 643 490.34 643 490 643C490 613.96 490 584.92 490 555Z" fill="#F9FAFC"/>
<path d="M324 390C324.66 390.33 325.32 390.66 326 391C325.271 391.51 325.271 391.51 324.527 392.031C322.253 394.964 322.56 397.938 322.568 401.501C322.557 402.262 322.547 403.023 322.537 403.807C322.506 406.324 322.497 408.839 322.488 411.355C322.471 413.1 322.453 414.844 322.434 416.589C322.386 421.181 322.356 425.772 322.33 430.364C322.301 435.049 322.254 439.735 322.209 444.42C322.123 453.613 322.055 462.807 322 472C321.67 472 321.34 472 321 472C320.93 461.752 320.877 451.503 320.844 441.254C320.829 436.496 320.808 431.737 320.774 426.979C320.741 422.388 320.723 417.798 320.715 413.207C320.71 411.454 320.699 409.701 320.683 407.948C320.661 405.496 320.658 403.045 320.659 400.593C320.649 399.865 320.638 399.137 320.627 398.387C320.657 393.445 320.657 393.445 322.521 391.025C323.009 390.687 323.497 390.349 324 390Z" fill="#F9FAFC"/>
<path d="M489 394C489.33 394 489.66 394 490 394C490 421.06 490 448.12 490 476C489.67 476 489.34 476 489 476C489 448.94 489 421.88 489 394Z" fill="#F9FAFC"/>
<path d="M563 642C589.4 642 615.8 642 643 642C643 642.33 643 642.66 643 643C616.6 643 590.2 643 563 643C563 642.67 563 642.34 563 642Z" fill="#F9FAFC"/>
<path d="M489 476C489.33 476 489.66 476 490 476C490 501.08 490 526.16 490 552C489.67 552 489.34 552 489 552C489 526.92 489 501.84 489 476Z" fill="#F9FAFC"/>
<path d="M320 395C320.33 395 320.66 395 321 395C321 420.08 321 445.16 321 471C320.67 471 320.34 471 320 471C320 445.92 320 420.84 320 395Z" fill="#F9FAFC"/>
<path d="M281 642C304.1 642 327.2 642 351 642C351 642.33 351 642.66 351 643C327.9 643 304.8 643 281 643C281 642.67 281 642.34 281 642Z" fill="#F9FAFC"/>
<path d="M266 456C268.966 457.669 271.617 459.678 274.312 461.75C275.911 462.942 277.51 464.133 279.109 465.324C279.921 465.936 280.732 466.547 281.568 467.177C285.364 470.022 289.213 472.792 293.062 475.562C293.807 476.1 294.551 476.638 295.318 477.192C300.354 480.83 305.419 484.425 310.5 488C319.39 494.256 328.215 500.598 337 507C337.635 507.461 338.269 507.923 338.923 508.398C340.62 509.634 342.311 510.878 344 512.125C345.392 513.15 345.392 513.15 346.812 514.195C349.378 516.312 350.883 517.908 351.246 521.29C351.244 522.194 351.242 523.099 351.24 524.03C351.245 525.589 351.245 525.589 351.249 527.179C351.238 528.888 351.238 528.888 351.227 530.632C351.227 531.832 351.228 533.032 351.228 534.268C351.227 537.559 351.217 540.85 351.203 544.141C351.19 547.581 351.189 551.02 351.187 554.459C351.18 560.972 351.164 567.485 351.144 573.998C351.119 582.14 351.108 590.282 351.098 598.424C351.078 612.949 351.038 627.475 351 642C327.9 642 304.8 642 281 642C281 624.18 281 606.36 281 588C268.46 588 255.92 588 243 588C243 605.82 243 623.64 243 642C219.9 642 196.8 642 173 642C172.679 611.293 172.679 611.293 172.598 596.12C172.554 587.915 172.497 579.711 172.396 571.507C172.317 565.011 172.265 558.515 172.247 552.019C172.237 548.58 172.212 545.143 172.154 541.704C172.089 537.862 172.088 534.021 172.092 530.177C172.063 529.043 172.034 527.909 172.005 526.74C172.083 519.188 172.083 519.188 174.693 515.805C176.714 514.007 178.747 512.494 181 511C182.412 509.945 183.821 508.887 185.227 507.824C186.69 506.774 188.156 505.729 189.625 504.688C190.411 504.125 191.198 503.562 192.008 502.982C194.336 501.318 196.667 499.658 199 498C200.216 497.132 201.433 496.263 202.648 495.395C204.325 494.197 206.001 492.999 207.679 491.803C212.382 488.448 217.068 485.071 221.75 481.688C222.502 481.144 223.254 480.6 224.029 480.041C228.744 476.633 233.456 473.222 238.168 469.81C240.437 468.17 242.713 466.538 244.988 464.906C247.398 463.174 249.758 461.413 252.105 459.594C252.957 458.944 253.81 458.294 254.687 457.625C255.372 457.081 256.056 456.537 256.762 455.977C260.26 454.45 262.339 455.001 266 456Z" fill="#F9FAFC"/>
<path d="M509 384C509.33 384 509.66 384 510 384C510 469.14 510 554.28 510 642C527.49 642 544.98 642 563 642C563 642.33 563 642.66 563 643C545.18 643 527.36 643 509 643C509 557.53 509 472.06 509 384Z" fill="#F9FAFC"/>
<path d="M642 351C642.33 351 642.66 351 643 351C643 447.03 643 543.06 643 642C642.67 642 642.34 642 642 642C642 545.97 642 449.94 642 351Z" fill="#F9FAFC"/>
<path d="M490 396C490.33 396 490.66 396 491 396C491 448.47 491 500.94 491 555C490.67 555 490.34 555 490 555C490 502.53 490 450.06 490 396Z" fill="#F9FAFC"/>
<path d="M643 497C643.33 497 643.66 497 644 497C644 545.18 644 593.36 644 643C643.67 643 643.34 643 643 643C643 594.82 643 546.64 643 497Z" fill="#F9FAFC"/>
<path d="M643 353C643.33 353 643.66 353 644 353C644 400.52 644 448.04 644 497C643.67 497 643.34 497 643 497C643 449.48 643 401.96 643 353Z" fill="#F9FAFC"/>
<path d="M370 628C370.33 628 370.66 628 371 628C371 632.62 371 637.24 371 642C410.27 642 449.54 642 490 642C490 642.33 490 642.66 490 643C450.4 643 410.8 643 370 643C370 638.05 370 633.1 370 628Z" fill="#F9FAFC"/>
<path d="M243 588C243.33 588 243.66 588 244 588C244 606.15 244 624.3 244 643C220.24 643 196.48 643 172 643C172 642.67 172 642.34 172 642C195.43 642 218.86 642 243 642C243 624.18 243 606.36 243 588Z" fill="#F9FAFC"/>
<path d="M172 519C172.33 519 172.66 519 173 519C173 559.59 173 600.18 173 642C172.67 642 172.34 642 172 642C172 601.41 172 560.82 172 519Z" fill="#F9FAFC"/>
<path d="M351 521C351.33 521 351.66 521 352 521C352 561.26 352 601.52 352 643C351.67 643 351.34 643 351 643C351 602.74 351 562.48 351 521Z" fill="#F9FAFC"/>
<path d="M171 521C171.33 521 171.66 521 172 521C172 561.26 172 601.52 172 643C171.67 643 171.34 643 171 643C171 602.74 171 562.48 171 521Z" fill="#F9FAFC"/>
<path d="M370 510C370.33 510 370.66 510 371 510C371 548.94 371 587.88 371 628C370.67 628 370.34 628 370 628C370 589.06 370 550.12 370 510Z" fill="#F9FAFC"/>
<path d="M244 588C256.21 588 268.42 588 281 588C281 606.15 281 624.3 281 643C280.67 643 280.34 643 280 643C280 625.18 280 607.36 280 589C268.12 589 256.24 589 244 589C244 588.67 244 588.34 244 588Z" fill="#F9FAFC"/>
<path d="M490 555C490.33 555 490.66 555 491 555C491 584.04 491 613.08 491 643C490.67 643 490.34 643 490 643C490 613.96 490 584.92 490 555Z" fill="#F9FAFC"/>
<path d="M324 390C324.66 390.33 325.32 390.66 326 391C325.271 391.51 325.271 391.51 324.527 392.031C322.253 394.964 322.56 397.938 322.568 401.501C322.557 402.262 322.547 403.023 322.537 403.807C322.506 406.324 322.497 408.839 322.488 411.355C322.471 413.1 322.453 414.844 322.434 416.589C322.386 421.181 322.356 425.772 322.33 430.364C322.301 435.049 322.254 439.735 322.209 444.42C322.123 453.613 322.055 462.807 322 472C321.67 472 321.34 472 321 472C320.93 461.752 320.877 451.503 320.844 441.254C320.829 436.496 320.808 431.737 320.774 426.979C320.741 422.388 320.723 417.798 320.715 413.207C320.71 411.454 320.699 409.701 320.683 407.948C320.661 405.496 320.658 403.045 320.659 400.593C320.649 399.865 320.638 399.137 320.627 398.387C320.657 393.445 320.657 393.445 322.521 391.025C323.009 390.687 323.497 390.349 324 390Z" fill="#F9FAFC"/>
<path d="M489 394C489.33 394 489.66 394 490 394C490 421.06 490 448.12 490 476C489.67 476 489.34 476 489 476C489 448.94 489 421.88 489 394Z" fill="#F9FAFC"/>
<path d="M489 476C489.33 476 489.66 476 490 476C490 501.08 490 526.16 490 552C489.67 552 489.34 552 489 552C489 526.92 489 501.84 489 476Z" fill="#F9FAFC"/>
<path d="M320 395C320.33 395 320.66 395 321 395C321 420.08 321 445.16 321 471C320.67 471 320.34 471 320 471C320 445.92 320 420.84 320 395Z" fill="#F9FAFC"/>
<path d="M281 642C304.1 642 327.2 642 351 642C351 642.33 351 642.66 351 643C327.9 643 304.8 643 281 643C281 642.67 281 642.34 281 642Z" fill="#F9FAFC"/>
<path d="M551.39 232.549L487.069 268.555C485.174 269.616 484 271.618 484 273.79V316.606C484 321.225 489.001 324.112 493.001 321.802L551.324 288.117C553.09 287.097 555.253 287.044 557.067 287.976L624.257 322.507C628.25 324.559 633 321.66 633 317.17V273.987C633 271.711 631.712 269.631 629.675 268.617L556.996 232.414C555.22 231.529 553.121 231.58 551.39 232.549Z" fill="#6683A0"/>
<rect x="684" y="638" width="200" height="6" fill="#6683A0"/>
<rect x="684" y="638" width="200" height="6" fill="#6683A0"/>
</svg>
