<svg xmlns="http://www.w3.org/2000/svg" width="512" height="512" viewBox="-10 -10 494 432" fill="none">
  <g>
    <g fill="#0A2D55">
      <path d="M319.597 165C319.927 165 320.257 165 320.597 165C320.597 217.47 320.597 269.94 320.597 324C320.267 324 319.937 324 319.597 324C319.597 271.53 319.597 219.06 319.597 165Z"/>
      <path d="M318.597 245C318.927 245 319.257 245 319.597 245C319.597 270.08 319.597 295.16 319.597 321C319.267 321 318.937 321 318.597 321C318.597 295.92 318.597 270.84 318.597 245Z"/>
      <path d="M471.597 120C471.927 120 472.257 120 472.597 120C472.597 216.03 472.597 312.06 472.597 411C472.267 411 471.937 411 471.597 411C471.597 314.97 471.597 218.94 471.597 120Z"/>
      <path d="M199.597 279C199.927 279 200.257 279 200.597 279C200.597 317.94 200.597 356.88 200.597 397C200.267 397 199.937 397 199.597 397C199.597 358.06 199.597 319.12 199.597 279Z"/>
      <path d="M180.597 290C180.927 290 181.257 290 181.597 290C181.597 330.26 181.597 370.52 181.597 412C181.267 412 180.937 412 180.597 412C180.597 371.74 180.597 331.48 180.597 290Z"/>
      <path d="M1.59659 288C1.92659 288 2.25659 288 2.59659 288C2.59659 328.59 2.59662 369.18 2.59662 411C2.26662 411 1.93659 411 1.59659 411C1.59659 370.41 1.59659 329.82 1.59659 288Z"/>
      <path d="M241.6 127.293C242.687 127.733 242.687 127.733 243.796 128.183C244.576 128.514 245.356 128.846 246.159 129.188C247.435 129.714 247.435 129.714 248.737 130.251C259.135 134.574 269.452 139.094 279.772 143.598C285.051 145.901 290.34 148.179 295.64 150.434C296.287 150.709 296.934 150.985 297.601 151.269C300.7 152.589 303.799 153.906 306.901 155.218C308.001 155.686 309.1 156.154 310.233 156.637C311.683 157.251 311.683 157.251 313.162 157.878C315.597 159 315.597 159 318.597 161C318.981 163.494 318.981 163.494 318.995 166.709C319.008 167.928 319.02 169.147 319.033 170.402C319.032 171.764 319.031 173.125 319.029 174.486C319.038 175.919 319.048 177.351 319.06 178.783C319.088 182.707 319.097 186.631 319.103 190.555C319.112 194.723 319.139 198.892 319.163 203.061C319.207 211.099 319.235 219.138 319.258 227.176C319.285 236.381 319.328 245.586 319.372 254.79C319.525 287.079 319.611 319.368 319.651 351.656C319.653 353.188 319.653 353.188 319.655 354.751C319.676 373.501 319.63 392.25 319.597 411C280.327 411 241.057 411 200.597 411C200.575 396.794 200.575 396.794 200.554 382.301C200.534 376.308 200.512 370.315 200.485 364.322C200.443 354.806 200.405 345.29 200.401 335.774C200.398 328.843 200.377 321.913 200.336 314.983C200.315 311.313 200.302 307.644 200.31 303.975C200.319 299.878 200.289 295.782 200.256 291.685C200.265 290.469 200.273 289.252 200.282 287.999C200.281 281.446 200.281 281.446 197.219 275.839C196.354 275.232 195.488 274.625 194.597 274C193.732 273.305 192.867 272.61 191.975 271.895C191.046 271.208 190.117 270.52 189.159 269.813C188.103 269.031 187.048 268.25 185.96 267.445C182.038 264.582 178.08 261.772 174.12 258.962C169.289 255.524 164.527 251.996 159.784 248.438C159.084 247.913 158.384 247.387 157.662 246.846C152.732 243.135 152.732 243.135 151.597 242C151.48 239.562 151.429 237.153 151.42 234.714C151.413 233.951 151.406 233.189 151.4 232.403C151.38 229.868 151.368 227.332 151.358 224.797C151.354 223.933 151.35 223.068 151.346 222.177C151.325 217.601 151.311 213.024 151.301 208.447C151.29 203.718 151.256 198.989 151.216 194.26C151.19 190.626 151.182 186.992 151.178 183.358C151.173 181.615 151.162 179.872 151.143 178.129C151.119 175.687 151.12 173.246 151.127 170.804C151.114 170.085 151.101 169.365 151.088 168.625C151.123 165.194 151.514 163.136 153.295 160.178C155.757 157.848 157.775 156.668 160.89 155.356C161.949 154.902 163.009 154.448 164.1 153.98C165.245 153.506 166.39 153.031 167.569 152.543C168.762 152.036 169.954 151.53 171.182 151.008C174.357 149.659 177.539 148.326 180.723 146.998C183.892 145.672 187.053 144.331 190.216 142.99C195.095 140.924 199.981 138.872 204.871 136.83C209.063 135.075 213.239 133.29 217.397 131.456C218.264 131.077 219.132 130.698 220.026 130.308C221.588 129.624 223.146 128.93 224.699 128.224C230.372 125.757 235.685 124.846 241.6 127.293Z"/>
      <path d="M472.597 122C472.927 122 473.257 122 473.597 122C473.597 169.52 473.597 217.04 473.597 266C473.267 266 472.937 266 472.597 266C472.597 218.48 472.597 170.96 472.597 122Z"/>
      <path d="M319.597 324C319.927 324 320.257 324 320.597 324C320.597 353.04 320.597 382.08 320.597 412C320.267 412 319.937 412 319.597 412C319.597 382.96 319.597 353.92 319.597 324Z"/>
      <path d="M392.597 411C418.997 411 445.397 411 472.597 411C472.597 411.33 472.597 411.66 472.597 412C446.197 412 419.797 412 392.597 412C392.597 411.67 392.597 411.34 392.597 411Z"/>
      <path d="M149.597 164C149.927 164 150.257 164 150.597 164C150.597 189.08 150.597 214.16 150.597 240C150.267 240 149.937 240 149.597 240C149.597 214.92 149.597 189.84 149.597 164Z"/>
      <path d="M95.5966 225C98.5627 226.669 101.214 228.678 103.909 230.75C105.508 231.942 107.107 233.133 108.706 234.324C109.517 234.936 110.329 235.547 111.165 236.177C114.96 239.022 118.809 241.792 122.659 244.562C123.403 245.1 124.148 245.638 124.914 246.192C129.951 249.83 135.015 253.425 140.097 257C148.986 263.256 157.812 269.598 166.597 276C167.231 276.461 167.866 276.923 168.52 277.398C170.217 278.634 171.908 279.878 173.597 281.125C174.989 282.15 174.989 282.15 176.409 283.195C178.975 285.312 180.479 286.908 180.843 290.29C180.841 291.194 180.839 292.099 180.837 293.03C180.841 294.589 180.841 294.589 180.845 296.179C180.835 297.888 180.835 297.888 180.824 299.632C180.824 300.832 180.824 302.032 180.825 303.268C180.823 306.559 180.813 309.85 180.799 313.141C180.787 316.581 180.786 320.02 180.783 323.459C180.777 329.972 180.761 336.485 180.741 342.998C180.716 351.14 180.705 359.282 180.694 367.424C180.675 381.949 180.635 396.475 180.597 411C157.497 411 134.397 411 110.597 411C110.597 393.18 110.597 375.36 110.597 357C98.0566 357 85.5166 357 72.5966 357C72.5966 374.82 72.5966 392.64 72.5966 411C49.4966 411 26.3966 411 2.59662 411C2.27531 380.293 2.2753 380.293 2.19458 365.12C2.15026 356.915 2.094 348.711 1.99311 340.507C1.91326 334.011 1.86172 327.515 1.84391 321.019C1.83349 317.58 1.8091 314.143 1.75077 310.704C1.6861 306.862 1.68471 303.021 1.68842 299.177C1.65966 298.043 1.63089 296.909 1.60126 295.74C1.68014 288.188 1.68012 288.188 4.29007 284.805C6.31098 283.007 8.34406 281.494 10.5966 280C12.0083 278.945 13.4175 277.887 14.8232 276.824C16.2863 275.774 17.7525 274.729 19.2216 273.688C20.008 273.125 20.7943 272.562 21.6044 271.982C23.9324 270.318 26.2641 268.658 28.5966 267C29.813 266.132 31.0292 265.263 32.2451 264.395C33.9215 263.197 35.5981 261.999 37.2758 260.803C41.9787 257.448 46.6645 254.071 51.3466 250.688C52.0988 250.144 52.851 249.6 53.6259 249.041C58.3404 245.633 63.053 242.222 67.7643 238.81C70.034 237.17 72.3093 235.538 74.5849 233.906C76.9952 232.174 79.3544 230.413 81.7021 228.594C82.5542 227.944 83.4062 227.294 84.2841 226.625C84.9686 226.081 85.6531 225.537 86.3583 224.977C89.8566 223.45 91.9356 224.001 95.5966 225Z"/>
      <path d="M199.597 397C199.927 397 200.257 397 200.597 397C200.597 401.62 200.597 406.24 200.597 411C239.867 411 279.137 411 319.597 411C319.597 411.33 319.597 411.66 319.597 412C279.997 412 240.397 412 199.597 412C199.597 407.05 199.597 402.1 199.597 397Z"/>
      <path d="M391.597 74.9999C394.451 76.1706 394.451 76.1706 397.429 77.8242C399.102 78.7391 399.102 78.7391 400.809 79.6725C402.009 80.3441 403.209 81.0158 404.409 81.6874C406.296 82.7253 408.186 83.7585 410.076 84.7917C411.363 85.4957 412.649 86.2012 413.934 86.9081C420.059 90.273 426.258 93.4899 432.472 96.6874C440.645 100.913 448.77 105.218 456.847 109.625C457.758 110.122 458.669 110.619 459.608 111.132C464.308 113.709 464.308 113.709 466.597 115C467.454 115.284 468.312 115.567 469.196 115.859C471.597 118 471.597 118 472.055 120.198C472.232 123.303 472.238 126.374 472.198 129.484C472.204 131.283 472.204 131.283 472.211 133.118C472.218 136.452 472.202 139.785 472.177 143.119C472.155 146.712 472.163 150.305 472.166 153.898C472.169 160.125 472.153 166.352 472.125 172.58C472.085 181.583 472.072 190.586 472.065 199.59C472.054 214.196 472.021 228.803 471.974 243.409C471.928 257.6 471.893 271.791 471.871 285.982C471.87 286.865 471.869 287.748 471.867 288.658C471.857 295.566 471.847 302.474 471.837 309.382C471.79 343.255 471.69 377.127 471.597 411C428.037 411 384.477 411 339.597 411C339.548 392.422 339.499 373.844 339.448 354.703C339.413 342.963 339.377 331.224 339.339 319.484C339.319 313.32 339.299 307.155 339.279 300.99C339.277 300.218 339.274 299.445 339.272 298.649C339.232 286.167 339.199 273.685 339.169 261.203C339.138 248.397 339.099 235.592 339.054 222.787C339.026 214.882 339.004 206.978 338.989 199.073C338.978 193.017 338.955 186.96 338.929 180.904C338.92 178.416 338.914 175.928 338.912 173.44C338.909 170.052 338.894 166.664 338.875 163.276C338.877 162.283 338.879 161.291 338.881 160.269C338.873 159.362 338.866 158.456 338.858 157.521C338.855 156.348 338.855 156.348 338.851 155.151C338.557 152.668 337.94 151.104 336.597 149C334.359 147.63 332.232 146.48 329.874 145.363C329.213 145.038 328.553 144.713 327.872 144.379C325.765 143.345 323.65 142.328 321.534 141.312C319.417 140.282 317.301 139.249 315.186 138.214C313.87 137.572 312.552 136.933 311.233 136.298C306.704 134.108 306.704 134.108 305.597 133C305.288 130.234 305.288 130.234 305.159 126.75C305.099 125.61 305.038 124.471 304.975 123.297C305.661 119.658 306.629 118.407 309.596 116.251C313.822 113.608 318.188 111.26 322.597 108.937C324.761 107.782 326.925 106.625 329.089 105.469C330.179 104.889 331.269 104.309 332.392 103.711C337.186 101.151 341.954 98.5457 346.722 95.9374C348.516 94.9582 350.31 93.979 352.104 92.9999C355.954 90.8977 359.803 88.793 363.651 86.6874C364.646 86.1435 365.641 85.5996 366.666 85.0392C368.567 84.0003 370.467 82.9605 372.367 81.9196C374.047 81.0011 375.731 80.0873 377.417 79.1791C379.238 78.1938 381.044 77.1803 382.847 76.1601C386.094 74.7901 388.088 74.7263 391.597 74.9999Z"/>
      <path d="M318.597 163C318.927 163 319.257 163 319.597 163C319.597 190.06 319.597 217.12 319.597 245C319.267 245 318.937 245 318.597 245C318.597 217.94 318.597 190.88 318.597 163Z"/>
      <path d="M72.5966 357C72.9266 357 73.2566 357 73.5966 357C73.5966 375.15 73.5966 393.3 73.5966 412C49.8366 412 26.0766 412 1.59659 412C1.59659 411.67 1.59659 411.34 1.59659 411C25.0266 411 48.4566 411 72.5966 411C72.5966 393.18 72.5966 375.36 72.5966 357Z"/>
      <path d="M472.597 266C472.927 266 473.257 266 473.597 266C473.597 314.18 473.597 362.36 473.597 412C473.267 412 472.937 412 472.597 412C472.597 363.82 472.597 315.64 472.597 266Z"/>
      <path d="M0.596591 290C0.926591 290 1.25659 290 1.59659 290C1.59659 330.26 1.59659 370.52 1.59659 412C1.26659 412 0.936591 412 0.596591 412C0.596591 371.74 0.596591 331.48 0.596591 290Z"/>
      <path d="M338.597 153C338.927 153 339.257 153 339.597 153C339.597 238.14 339.597 323.28 339.597 411C357.087 411 374.577 411 392.597 411C392.597 411.33 392.597 411.66 392.597 412C374.777 412 356.957 412 338.597 412C338.597 326.53 338.597 241.06 338.597 153Z"/>
      <path d="M73.5966 357C85.8066 357 98.0166 357 110.597 357C110.597 375.15 110.597 393.3 110.597 412C110.267 412 109.937 412 109.597 412C109.597 394.18 109.597 376.36 109.597 358C97.7166 358 85.8366 358 73.5966 358C73.5966 357.67 73.5966 357.34 73.5966 357Z"/>
      <path d="M110.597 411C133.697 411 156.797 411 180.597 411C180.597 411.33 180.597 411.66 180.597 412C157.497 412 134.397 412 110.597 412C110.597 411.67 110.597 411.34 110.597 411Z"/>
      <path d="M153.597 159C154.257 159.33 154.917 159.66 155.597 160C154.867 160.51 154.867 160.51 154.124 161.031C151.849 163.964 152.157 166.938 152.164 170.501C152.154 171.262 152.144 172.023 152.133 172.807C152.103 175.324 152.094 177.839 152.085 180.355C152.068 182.1 152.05 183.844 152.03 185.589C151.983 190.181 151.953 194.772 151.927 199.364C151.897 204.049 151.851 208.735 151.806 213.42C151.719 222.613 151.652 231.806 151.597 241C151.267 241 150.937 241 150.597 241C150.527 230.752 150.474 220.503 150.441 210.254C150.425 205.496 150.404 200.737 150.37 195.979C150.338 191.388 150.32 186.798 150.312 182.207C150.306 180.454 150.296 178.701 150.279 176.948C150.258 174.496 150.255 172.045 150.256 169.593C150.245 168.865 150.234 168.137 150.223 167.387C150.254 162.445 150.254 162.445 152.118 160.025C152.606 159.687 153.094 159.349 153.597 159Z"/>
    </g>
    <path d="M380.986 1.54907L316.666 37.5546C314.771 38.6156 313.597 40.6181 313.597 42.7901V85.6059C313.597 90.2251 318.597 93.1118 322.597 90.8015L380.92 57.1169C382.686 56.0969 384.85 56.0438 386.664 56.9761L453.854 91.507C457.847 93.559 462.597 90.6598 462.597 86.1705V42.9872C462.597 40.7113 461.309 38.6313 459.272 37.6166L386.592 1.41398C384.816 0.529312 382.718 0.579884 380.986 1.54907Z" fill="#6683A0"/>
  </g>
</svg>
